M48
;DRILL file {KiCad 5.0.1-33cea8e~68~ubuntu18.04.1} date dom 18 nov 2018 16:32:17 -03
;FORMAT={-:-/ absolute / inch / decimal}
FMAT,2
INCH,TZ
T1C0.0160
T2C0.0197
T3C0.0236
T4C0.0335
T5C0.0390
T6C0.0394
T7C0.0512
T8C0.1260
%
G90
G05
M72
T1
X3.9763Y-2.8714
X4.0819Y-2.2188
X4.1273Y-2.3294
X4.1273Y-2.3687
X4.1273Y-2.411
X4.1428Y-2.8365
X4.1428Y-2.8878
X4.1675Y-2.2188
X4.1914Y-2.9364
X4.2538Y-2.2188
X4.4814Y-2.1624
X4.5196Y-2.153
X4.5335Y-2.5646
X4.5441Y-2.1239
X4.5477Y-2.7413
X4.5755Y-2.1512
X4.5973Y-2.1881
X4.6356Y-3.0568
X4.6594Y-2.5678
X4.675Y-2.4973
X4.6762Y-2.4572
X4.6787Y-2.5351
X4.6851Y-2.5957
X4.713Y-2.722
X4.7367Y-3.1159
X4.7582Y-2.2699
X4.8025Y-2.3109
X4.8319Y-3.0871
X4.8394Y-2.8786
X4.9042Y-2.374
X4.9672Y-3.5436
X5.0327Y-3.3036
X5.1507Y-3.2553
X5.1833Y-2.566
X5.1886Y-3.2582
X5.2066Y-3.2171
X5.2145Y-3.1791
X5.2298Y-2.5992
X5.2566Y-3.0334
X5.2716Y-2.5193
X5.2817Y-3.4966
X5.2822Y-3.3026
X5.2969Y-2.369
X5.3188Y-3.1487
X5.3324Y-2.3544
X5.3511Y-2.5844
X5.355Y-3.3722
X5.3578Y-2.7366
X5.3633Y-3.473
X5.3666Y-3.4084
X5.39Y-3.4412
X5.4357Y-3.1315
X5.4371Y-3.232
X5.4691Y-2.5538
X5.5747Y-4.0998
X5.5914Y-2.5266
X5.5914Y-2.6255
X5.6522Y-2.6135
X5.6649Y-2.699
X5.6905Y-4.095
X5.7019Y-3.7457
X5.7019Y-3.7457
X5.7035Y-3.8143
X5.7081Y-2.575
X5.7716Y-3.8857
X5.7987Y-2.699
X5.8025Y-2.5788
X5.8056Y-4.1245
X5.8082Y-3.7209
X5.8155Y-3.8143
X5.8174Y-4.2671
X5.8866Y-4.374
X5.9007Y-2.5669
X5.9235Y-4.1642
X5.9443Y-3.8845
X5.9765Y-3.721
X5.9781Y-3.8143
X5.9781Y-3.8854
X6.0477Y-4.2965
X6.0489Y-4.2167
X6.2631Y-2.8458
X6.2878Y-2.8187
X6.3277Y-2.8064
T2
X6.1555Y-4.4055
X6.1832Y-4.3387
X6.1832Y-4.4723
X6.25Y-4.311
X6.25Y-4.5
X6.3168Y-4.3387
X6.3168Y-4.4723
X6.3445Y-4.4055
X3.9555Y-4.4055
X3.9832Y-4.3387
X3.9832Y-4.4723
X4.05Y-4.311
X4.05Y-4.5
X4.1168Y-4.3387
X4.1168Y-4.4723
X4.1445Y-4.4055
X6.1555Y-1.8
X6.1832Y-1.7332
X6.1832Y-1.8668
X6.25Y-1.7055
X6.25Y-1.8945
X6.3168Y-1.7332
X6.3168Y-1.8668
X6.3445Y-1.8
X3.9555Y-1.8
X3.9832Y-1.7332
X3.9832Y-1.8668
X4.05Y-1.7055
X4.05Y-1.8945
X4.1168Y-1.7332
X4.1168Y-1.8668
X4.1445Y-1.8
T4
X6.2424Y-3.4016
X6.2424Y-3.5984
X4.0576Y-2.4016
X4.0576Y-2.5984
X6.2424Y-2.9516
X6.2424Y-3.1484
T5
X4.0009Y-3.0214
X4.0009Y-3.1986
X4.Y-3.4228
X4.Y-3.6
T6
X5.8Y-1.9
X5.8Y-2.
X5.9Y-1.9
X5.9Y-2.
X4.3Y-3.7
X4.3Y-3.8
X4.4Y-3.7
X4.4Y-3.8
X4.5Y-3.7
X4.5Y-3.8
X4.6Y-3.7
X4.6Y-3.8
X4.7Y-3.7
X4.7Y-3.8
X4.8Y-3.7
X4.8Y-3.8
X4.9Y-3.7
X4.9Y-3.8
X5.Y-3.7
X5.Y-3.8
X5.1Y-3.7
X5.1Y-3.8
X5.2Y-3.7
X5.2Y-3.8
X5.3Y-3.7
X5.3Y-3.8
X5.4Y-3.7
X5.4Y-3.8
X5.5Y-3.7
X5.5Y-3.8
X5.6Y-3.7
X5.6Y-3.8
X6.1Y-2.1
X6.2Y-2.1
X5.9Y-2.9
X5.9Y-3.
X5.9Y-3.1
X5.9Y-3.2
X5.9Y-3.3
X5.9Y-3.4
X5.9Y-3.5
X5.9Y-3.6
X6.Y-2.9
X6.Y-3.
X6.Y-3.1
X6.Y-3.2
X6.Y-3.3
X6.Y-3.4
X6.Y-3.5
X6.Y-3.6
X6.2Y-3.8
X6.2Y-3.9
X6.2Y-4.
X6.2Y-4.1
X6.3Y-3.8
X6.3Y-3.9
X6.3Y-4.
X6.3Y-4.1
X4.3Y-1.9
X4.3Y-2.
X4.4Y-1.9
X4.4Y-2.
X4.5Y-1.9
X4.5Y-2.
X4.6Y-1.9
X4.6Y-2.
X4.7Y-1.9
X4.7Y-2.
X4.8Y-1.9
X4.8Y-2.
X4.9Y-1.9
X4.9Y-2.
X5.Y-1.9
X5.Y-2.
X5.1Y-1.9
X5.1Y-2.
X5.2Y-1.9
X5.2Y-2.
X5.3Y-1.9
X5.3Y-2.
X5.4Y-1.9
X5.4Y-2.
X5.5Y-1.9
X5.5Y-2.
X5.6Y-1.9
X5.6Y-2.
T7
X4.0989Y-2.9718
X4.0989Y-3.2478
X4.098Y-3.3732
X4.098Y-3.6492
T8
X4.05Y-4.4055
X6.25Y-1.8
X4.05Y-1.8
X6.25Y-4.4055
T3
X6.3349Y-3.3622G85X6.3625Y-3.3622
G05
X6.3625Y-3.6378G85X6.3349Y-3.6378
G05
X3.9375Y-2.3622G85X3.9651Y-2.3622
G05
X3.9651Y-2.6378G85X3.9375Y-2.6378
G05
X6.3349Y-2.9122G85X6.3625Y-2.9122
G05
X6.3625Y-3.1878G85X6.3349Y-3.1878
G05
T0
M30
