G04 #@! TF.GenerationSoftware,KiCad,Pcbnew,5.0.1-33cea8e~68~ubuntu18.04.1*
G04 #@! TF.CreationDate,2018-11-18T16:32:13-03:00*
G04 #@! TF.ProjectId,proto-h750,70726F746F2D683735302E6B69636164,rev?*
G04 #@! TF.SameCoordinates,Original*
G04 #@! TF.FileFunction,Soldermask,Bot*
G04 #@! TF.FilePolarity,Negative*
%FSLAX46Y46*%
G04 Gerber Fmt 4.6, Leading zero omitted, Abs format (unit mm)*
G04 Created by KiCad (PCBNEW 5.0.1-33cea8e~68~ubuntu18.04.1) date dom 18 nov 2018 16:32:13 -03*
%MOMM*%
%LPD*%
G01*
G04 APERTURE LIST*
%ADD10C,0.100000*%
G04 APERTURE END LIST*
D10*
G36*
X103818223Y-108774127D02*
X104409833Y-109019180D01*
X104942261Y-109374936D01*
X105395064Y-109827739D01*
X105750820Y-110360167D01*
X105750821Y-110360169D01*
X105995873Y-110951777D01*
X106120800Y-111579824D01*
X106120800Y-112220176D01*
X106098263Y-112333476D01*
X105995873Y-112848223D01*
X105750820Y-113439833D01*
X105395064Y-113972261D01*
X104942261Y-114425064D01*
X104409833Y-114780820D01*
X104409832Y-114780821D01*
X104409831Y-114780821D01*
X103818223Y-115025873D01*
X103190176Y-115150800D01*
X102549824Y-115150800D01*
X101921777Y-115025873D01*
X101330169Y-114780821D01*
X101330168Y-114780821D01*
X101330167Y-114780820D01*
X100797739Y-114425064D01*
X100344936Y-113972261D01*
X99989180Y-113439833D01*
X99744127Y-112848223D01*
X99641737Y-112333476D01*
X99619200Y-112220176D01*
X99619200Y-111579824D01*
X99744127Y-110951777D01*
X99989179Y-110360169D01*
X99989180Y-110360167D01*
X100344936Y-109827739D01*
X100797739Y-109374936D01*
X101330167Y-109019180D01*
X101921777Y-108774127D01*
X102549824Y-108649200D01*
X103190176Y-108649200D01*
X103818223Y-108774127D01*
X103818223Y-108774127D01*
G37*
G36*
X159698223Y-108774127D02*
X160289833Y-109019180D01*
X160822261Y-109374936D01*
X161275064Y-109827739D01*
X161630820Y-110360167D01*
X161630821Y-110360169D01*
X161875873Y-110951777D01*
X162000800Y-111579824D01*
X162000800Y-112220176D01*
X161978263Y-112333476D01*
X161875873Y-112848223D01*
X161630820Y-113439833D01*
X161275064Y-113972261D01*
X160822261Y-114425064D01*
X160289833Y-114780820D01*
X160289832Y-114780821D01*
X160289831Y-114780821D01*
X159698223Y-115025873D01*
X159070176Y-115150800D01*
X158429824Y-115150800D01*
X157801777Y-115025873D01*
X157210169Y-114780821D01*
X157210168Y-114780821D01*
X157210167Y-114780820D01*
X156677739Y-114425064D01*
X156224936Y-113972261D01*
X155869180Y-113439833D01*
X155624127Y-112848223D01*
X155521737Y-112333476D01*
X155499200Y-112220176D01*
X155499200Y-111579824D01*
X155624127Y-110951777D01*
X155869179Y-110360169D01*
X155869180Y-110360167D01*
X156224936Y-109827739D01*
X156677739Y-109374936D01*
X157210167Y-109019180D01*
X157801777Y-108774127D01*
X158429824Y-108649200D01*
X159070176Y-108649200D01*
X159698223Y-108774127D01*
X159698223Y-108774127D01*
G37*
G36*
X160108362Y-103243545D02*
X160196588Y-103252234D01*
X160366389Y-103303743D01*
X160366392Y-103303745D01*
X160366393Y-103303745D01*
X160522874Y-103387385D01*
X160660043Y-103499957D01*
X160772615Y-103637126D01*
X160856255Y-103793607D01*
X160856257Y-103793611D01*
X160907766Y-103963412D01*
X160925158Y-104140000D01*
X160907766Y-104316588D01*
X160856257Y-104486389D01*
X160856255Y-104486392D01*
X160856255Y-104486393D01*
X160772615Y-104642874D01*
X160660043Y-104780043D01*
X160522874Y-104892615D01*
X160366393Y-104976255D01*
X160366389Y-104976257D01*
X160196588Y-105027766D01*
X160108362Y-105036455D01*
X160064250Y-105040800D01*
X159975750Y-105040800D01*
X159931638Y-105036455D01*
X159843412Y-105027766D01*
X159673611Y-104976257D01*
X159673607Y-104976255D01*
X159517126Y-104892615D01*
X159379957Y-104780043D01*
X159267385Y-104642874D01*
X159183745Y-104486393D01*
X159183745Y-104486392D01*
X159183743Y-104486389D01*
X159132234Y-104316588D01*
X159114842Y-104140000D01*
X159132234Y-103963412D01*
X159183743Y-103793611D01*
X159183745Y-103793607D01*
X159267385Y-103637126D01*
X159379957Y-103499957D01*
X159517126Y-103387385D01*
X159673607Y-103303745D01*
X159673608Y-103303745D01*
X159673611Y-103303743D01*
X159843412Y-103252234D01*
X159931638Y-103243545D01*
X159975750Y-103239200D01*
X160064250Y-103239200D01*
X160108362Y-103243545D01*
X160108362Y-103243545D01*
G37*
G36*
X157568362Y-103243545D02*
X157656588Y-103252234D01*
X157826389Y-103303743D01*
X157826392Y-103303745D01*
X157826393Y-103303745D01*
X157982874Y-103387385D01*
X158120043Y-103499957D01*
X158232615Y-103637126D01*
X158316255Y-103793607D01*
X158316257Y-103793611D01*
X158367766Y-103963412D01*
X158385158Y-104140000D01*
X158367766Y-104316588D01*
X158316257Y-104486389D01*
X158316255Y-104486392D01*
X158316255Y-104486393D01*
X158232615Y-104642874D01*
X158120043Y-104780043D01*
X157982874Y-104892615D01*
X157826393Y-104976255D01*
X157826389Y-104976257D01*
X157656588Y-105027766D01*
X157568362Y-105036455D01*
X157524250Y-105040800D01*
X157435750Y-105040800D01*
X157391638Y-105036455D01*
X157303412Y-105027766D01*
X157133611Y-104976257D01*
X157133607Y-104976255D01*
X156977126Y-104892615D01*
X156839957Y-104780043D01*
X156727385Y-104642874D01*
X156643745Y-104486393D01*
X156643745Y-104486392D01*
X156643743Y-104486389D01*
X156592234Y-104316588D01*
X156574842Y-104140000D01*
X156592234Y-103963412D01*
X156643743Y-103793611D01*
X156643745Y-103793607D01*
X156727385Y-103637126D01*
X156839957Y-103499957D01*
X156977126Y-103387385D01*
X157133607Y-103303745D01*
X157133608Y-103303745D01*
X157133611Y-103303743D01*
X157303412Y-103252234D01*
X157391638Y-103243545D01*
X157435750Y-103239200D01*
X157524250Y-103239200D01*
X157568362Y-103243545D01*
X157568362Y-103243545D01*
G37*
G36*
X157568362Y-100703545D02*
X157656588Y-100712234D01*
X157826389Y-100763743D01*
X157826392Y-100763745D01*
X157826393Y-100763745D01*
X157982874Y-100847385D01*
X158120043Y-100959957D01*
X158232615Y-101097126D01*
X158316255Y-101253607D01*
X158316257Y-101253611D01*
X158367766Y-101423412D01*
X158385158Y-101600000D01*
X158367766Y-101776588D01*
X158316257Y-101946389D01*
X158316255Y-101946392D01*
X158316255Y-101946393D01*
X158232615Y-102102874D01*
X158120043Y-102240043D01*
X157982874Y-102352615D01*
X157826393Y-102436255D01*
X157826389Y-102436257D01*
X157656588Y-102487766D01*
X157568362Y-102496455D01*
X157524250Y-102500800D01*
X157435750Y-102500800D01*
X157391638Y-102496455D01*
X157303412Y-102487766D01*
X157133611Y-102436257D01*
X157133607Y-102436255D01*
X156977126Y-102352615D01*
X156839957Y-102240043D01*
X156727385Y-102102874D01*
X156643745Y-101946393D01*
X156643745Y-101946392D01*
X156643743Y-101946389D01*
X156592234Y-101776588D01*
X156574842Y-101600000D01*
X156592234Y-101423412D01*
X156643743Y-101253611D01*
X156643745Y-101253607D01*
X156727385Y-101097126D01*
X156839957Y-100959957D01*
X156977126Y-100847385D01*
X157133607Y-100763745D01*
X157133608Y-100763745D01*
X157133611Y-100763743D01*
X157303412Y-100712234D01*
X157391638Y-100703545D01*
X157435750Y-100699200D01*
X157524250Y-100699200D01*
X157568362Y-100703545D01*
X157568362Y-100703545D01*
G37*
G36*
X160108362Y-100703545D02*
X160196588Y-100712234D01*
X160366389Y-100763743D01*
X160366392Y-100763745D01*
X160366393Y-100763745D01*
X160522874Y-100847385D01*
X160660043Y-100959957D01*
X160772615Y-101097126D01*
X160856255Y-101253607D01*
X160856257Y-101253611D01*
X160907766Y-101423412D01*
X160925158Y-101600000D01*
X160907766Y-101776588D01*
X160856257Y-101946389D01*
X160856255Y-101946392D01*
X160856255Y-101946393D01*
X160772615Y-102102874D01*
X160660043Y-102240043D01*
X160522874Y-102352615D01*
X160366393Y-102436255D01*
X160366389Y-102436257D01*
X160196588Y-102487766D01*
X160108362Y-102496455D01*
X160064250Y-102500800D01*
X159975750Y-102500800D01*
X159931638Y-102496455D01*
X159843412Y-102487766D01*
X159673611Y-102436257D01*
X159673607Y-102436255D01*
X159517126Y-102352615D01*
X159379957Y-102240043D01*
X159267385Y-102102874D01*
X159183745Y-101946393D01*
X159183745Y-101946392D01*
X159183743Y-101946389D01*
X159132234Y-101776588D01*
X159114842Y-101600000D01*
X159132234Y-101423412D01*
X159183743Y-101253611D01*
X159183745Y-101253607D01*
X159267385Y-101097126D01*
X159379957Y-100959957D01*
X159517126Y-100847385D01*
X159673607Y-100763745D01*
X159673608Y-100763745D01*
X159673611Y-100763743D01*
X159843412Y-100712234D01*
X159931638Y-100703545D01*
X159975750Y-100699200D01*
X160064250Y-100699200D01*
X160108362Y-100703545D01*
X160108362Y-100703545D01*
G37*
G36*
X160108362Y-98163545D02*
X160196588Y-98172234D01*
X160366389Y-98223743D01*
X160366392Y-98223745D01*
X160366393Y-98223745D01*
X160522874Y-98307385D01*
X160660043Y-98419957D01*
X160772615Y-98557126D01*
X160856255Y-98713607D01*
X160856257Y-98713611D01*
X160907766Y-98883412D01*
X160925158Y-99060000D01*
X160907766Y-99236588D01*
X160856257Y-99406389D01*
X160856255Y-99406392D01*
X160856255Y-99406393D01*
X160772615Y-99562874D01*
X160660043Y-99700043D01*
X160522874Y-99812615D01*
X160366393Y-99896255D01*
X160366389Y-99896257D01*
X160196588Y-99947766D01*
X160108362Y-99956455D01*
X160064250Y-99960800D01*
X159975750Y-99960800D01*
X159931638Y-99956455D01*
X159843412Y-99947766D01*
X159673611Y-99896257D01*
X159673607Y-99896255D01*
X159517126Y-99812615D01*
X159379957Y-99700043D01*
X159267385Y-99562874D01*
X159183745Y-99406393D01*
X159183745Y-99406392D01*
X159183743Y-99406389D01*
X159132234Y-99236588D01*
X159114842Y-99060000D01*
X159132234Y-98883412D01*
X159183743Y-98713611D01*
X159183745Y-98713607D01*
X159267385Y-98557126D01*
X159379957Y-98419957D01*
X159517126Y-98307385D01*
X159673607Y-98223745D01*
X159673608Y-98223745D01*
X159673611Y-98223743D01*
X159843412Y-98172234D01*
X159931638Y-98163545D01*
X159975750Y-98159200D01*
X160064250Y-98159200D01*
X160108362Y-98163545D01*
X160108362Y-98163545D01*
G37*
G36*
X157568362Y-98163545D02*
X157656588Y-98172234D01*
X157826389Y-98223743D01*
X157826392Y-98223745D01*
X157826393Y-98223745D01*
X157982874Y-98307385D01*
X158120043Y-98419957D01*
X158232615Y-98557126D01*
X158316255Y-98713607D01*
X158316257Y-98713611D01*
X158367766Y-98883412D01*
X158385158Y-99060000D01*
X158367766Y-99236588D01*
X158316257Y-99406389D01*
X158316255Y-99406392D01*
X158316255Y-99406393D01*
X158232615Y-99562874D01*
X158120043Y-99700043D01*
X157982874Y-99812615D01*
X157826393Y-99896255D01*
X157826389Y-99896257D01*
X157656588Y-99947766D01*
X157568362Y-99956455D01*
X157524250Y-99960800D01*
X157435750Y-99960800D01*
X157391638Y-99956455D01*
X157303412Y-99947766D01*
X157133611Y-99896257D01*
X157133607Y-99896255D01*
X156977126Y-99812615D01*
X156839957Y-99700043D01*
X156727385Y-99562874D01*
X156643745Y-99406393D01*
X156643745Y-99406392D01*
X156643743Y-99406389D01*
X156592234Y-99236588D01*
X156574842Y-99060000D01*
X156592234Y-98883412D01*
X156643743Y-98713611D01*
X156643745Y-98713607D01*
X156727385Y-98557126D01*
X156839957Y-98419957D01*
X156977126Y-98307385D01*
X157133607Y-98223745D01*
X157133608Y-98223745D01*
X157133611Y-98223743D01*
X157303412Y-98172234D01*
X157391638Y-98163545D01*
X157435750Y-98159200D01*
X157524250Y-98159200D01*
X157568362Y-98163545D01*
X157568362Y-98163545D01*
G37*
G36*
X137248362Y-95623545D02*
X137336588Y-95632234D01*
X137506389Y-95683743D01*
X137506392Y-95683745D01*
X137506393Y-95683745D01*
X137662874Y-95767385D01*
X137800043Y-95879957D01*
X137912615Y-96017126D01*
X137996255Y-96173607D01*
X137996257Y-96173611D01*
X138047766Y-96343412D01*
X138065158Y-96520000D01*
X138047766Y-96696588D01*
X137996257Y-96866389D01*
X137996255Y-96866392D01*
X137996255Y-96866393D01*
X137912615Y-97022874D01*
X137800043Y-97160043D01*
X137662874Y-97272615D01*
X137506393Y-97356255D01*
X137506389Y-97356257D01*
X137336588Y-97407766D01*
X137248362Y-97416455D01*
X137204250Y-97420800D01*
X137115750Y-97420800D01*
X137071638Y-97416455D01*
X136983412Y-97407766D01*
X136813611Y-97356257D01*
X136813607Y-97356255D01*
X136657126Y-97272615D01*
X136519957Y-97160043D01*
X136407385Y-97022874D01*
X136323745Y-96866393D01*
X136323745Y-96866392D01*
X136323743Y-96866389D01*
X136272234Y-96696588D01*
X136254842Y-96520000D01*
X136272234Y-96343412D01*
X136323743Y-96173611D01*
X136323745Y-96173607D01*
X136407385Y-96017126D01*
X136519957Y-95879957D01*
X136657126Y-95767385D01*
X136813607Y-95683745D01*
X136813608Y-95683745D01*
X136813611Y-95683743D01*
X136983412Y-95632234D01*
X137071638Y-95623545D01*
X137115750Y-95619200D01*
X137204250Y-95619200D01*
X137248362Y-95623545D01*
X137248362Y-95623545D01*
G37*
G36*
X110120800Y-97420800D02*
X108319200Y-97420800D01*
X108319200Y-95619200D01*
X110120800Y-95619200D01*
X110120800Y-97420800D01*
X110120800Y-97420800D01*
G37*
G36*
X111848362Y-95623545D02*
X111936588Y-95632234D01*
X112106389Y-95683743D01*
X112106392Y-95683745D01*
X112106393Y-95683745D01*
X112262874Y-95767385D01*
X112400043Y-95879957D01*
X112512615Y-96017126D01*
X112596255Y-96173607D01*
X112596257Y-96173611D01*
X112647766Y-96343412D01*
X112665158Y-96520000D01*
X112647766Y-96696588D01*
X112596257Y-96866389D01*
X112596255Y-96866392D01*
X112596255Y-96866393D01*
X112512615Y-97022874D01*
X112400043Y-97160043D01*
X112262874Y-97272615D01*
X112106393Y-97356255D01*
X112106389Y-97356257D01*
X111936588Y-97407766D01*
X111848362Y-97416455D01*
X111804250Y-97420800D01*
X111715750Y-97420800D01*
X111671638Y-97416455D01*
X111583412Y-97407766D01*
X111413611Y-97356257D01*
X111413607Y-97356255D01*
X111257126Y-97272615D01*
X111119957Y-97160043D01*
X111007385Y-97022874D01*
X110923745Y-96866393D01*
X110923745Y-96866392D01*
X110923743Y-96866389D01*
X110872234Y-96696588D01*
X110854842Y-96520000D01*
X110872234Y-96343412D01*
X110923743Y-96173611D01*
X110923745Y-96173607D01*
X111007385Y-96017126D01*
X111119957Y-95879957D01*
X111257126Y-95767385D01*
X111413607Y-95683745D01*
X111413608Y-95683745D01*
X111413611Y-95683743D01*
X111583412Y-95632234D01*
X111671638Y-95623545D01*
X111715750Y-95619200D01*
X111804250Y-95619200D01*
X111848362Y-95623545D01*
X111848362Y-95623545D01*
G37*
G36*
X114388362Y-95623545D02*
X114476588Y-95632234D01*
X114646389Y-95683743D01*
X114646392Y-95683745D01*
X114646393Y-95683745D01*
X114802874Y-95767385D01*
X114940043Y-95879957D01*
X115052615Y-96017126D01*
X115136255Y-96173607D01*
X115136257Y-96173611D01*
X115187766Y-96343412D01*
X115205158Y-96520000D01*
X115187766Y-96696588D01*
X115136257Y-96866389D01*
X115136255Y-96866392D01*
X115136255Y-96866393D01*
X115052615Y-97022874D01*
X114940043Y-97160043D01*
X114802874Y-97272615D01*
X114646393Y-97356255D01*
X114646389Y-97356257D01*
X114476588Y-97407766D01*
X114388362Y-97416455D01*
X114344250Y-97420800D01*
X114255750Y-97420800D01*
X114211638Y-97416455D01*
X114123412Y-97407766D01*
X113953611Y-97356257D01*
X113953607Y-97356255D01*
X113797126Y-97272615D01*
X113659957Y-97160043D01*
X113547385Y-97022874D01*
X113463745Y-96866393D01*
X113463745Y-96866392D01*
X113463743Y-96866389D01*
X113412234Y-96696588D01*
X113394842Y-96520000D01*
X113412234Y-96343412D01*
X113463743Y-96173611D01*
X113463745Y-96173607D01*
X113547385Y-96017126D01*
X113659957Y-95879957D01*
X113797126Y-95767385D01*
X113953607Y-95683745D01*
X113953608Y-95683745D01*
X113953611Y-95683743D01*
X114123412Y-95632234D01*
X114211638Y-95623545D01*
X114255750Y-95619200D01*
X114344250Y-95619200D01*
X114388362Y-95623545D01*
X114388362Y-95623545D01*
G37*
G36*
X158380800Y-97420800D02*
X156579200Y-97420800D01*
X156579200Y-95619200D01*
X158380800Y-95619200D01*
X158380800Y-97420800D01*
X158380800Y-97420800D01*
G37*
G36*
X160108362Y-95623545D02*
X160196588Y-95632234D01*
X160366389Y-95683743D01*
X160366392Y-95683745D01*
X160366393Y-95683745D01*
X160522874Y-95767385D01*
X160660043Y-95879957D01*
X160772615Y-96017126D01*
X160856255Y-96173607D01*
X160856257Y-96173611D01*
X160907766Y-96343412D01*
X160925158Y-96520000D01*
X160907766Y-96696588D01*
X160856257Y-96866389D01*
X160856255Y-96866392D01*
X160856255Y-96866393D01*
X160772615Y-97022874D01*
X160660043Y-97160043D01*
X160522874Y-97272615D01*
X160366393Y-97356255D01*
X160366389Y-97356257D01*
X160196588Y-97407766D01*
X160108362Y-97416455D01*
X160064250Y-97420800D01*
X159975750Y-97420800D01*
X159931638Y-97416455D01*
X159843412Y-97407766D01*
X159673611Y-97356257D01*
X159673607Y-97356255D01*
X159517126Y-97272615D01*
X159379957Y-97160043D01*
X159267385Y-97022874D01*
X159183745Y-96866393D01*
X159183745Y-96866392D01*
X159183743Y-96866389D01*
X159132234Y-96696588D01*
X159114842Y-96520000D01*
X159132234Y-96343412D01*
X159183743Y-96173611D01*
X159183745Y-96173607D01*
X159267385Y-96017126D01*
X159379957Y-95879957D01*
X159517126Y-95767385D01*
X159673607Y-95683745D01*
X159673608Y-95683745D01*
X159673611Y-95683743D01*
X159843412Y-95632234D01*
X159931638Y-95623545D01*
X159975750Y-95619200D01*
X160064250Y-95619200D01*
X160108362Y-95623545D01*
X160108362Y-95623545D01*
G37*
G36*
X142328362Y-95623545D02*
X142416588Y-95632234D01*
X142586389Y-95683743D01*
X142586392Y-95683745D01*
X142586393Y-95683745D01*
X142742874Y-95767385D01*
X142880043Y-95879957D01*
X142992615Y-96017126D01*
X143076255Y-96173607D01*
X143076257Y-96173611D01*
X143127766Y-96343412D01*
X143145158Y-96520000D01*
X143127766Y-96696588D01*
X143076257Y-96866389D01*
X143076255Y-96866392D01*
X143076255Y-96866393D01*
X142992615Y-97022874D01*
X142880043Y-97160043D01*
X142742874Y-97272615D01*
X142586393Y-97356255D01*
X142586389Y-97356257D01*
X142416588Y-97407766D01*
X142328362Y-97416455D01*
X142284250Y-97420800D01*
X142195750Y-97420800D01*
X142151638Y-97416455D01*
X142063412Y-97407766D01*
X141893611Y-97356257D01*
X141893607Y-97356255D01*
X141737126Y-97272615D01*
X141599957Y-97160043D01*
X141487385Y-97022874D01*
X141403745Y-96866393D01*
X141403745Y-96866392D01*
X141403743Y-96866389D01*
X141352234Y-96696588D01*
X141334842Y-96520000D01*
X141352234Y-96343412D01*
X141403743Y-96173611D01*
X141403745Y-96173607D01*
X141487385Y-96017126D01*
X141599957Y-95879957D01*
X141737126Y-95767385D01*
X141893607Y-95683745D01*
X141893608Y-95683745D01*
X141893611Y-95683743D01*
X142063412Y-95632234D01*
X142151638Y-95623545D01*
X142195750Y-95619200D01*
X142284250Y-95619200D01*
X142328362Y-95623545D01*
X142328362Y-95623545D01*
G37*
G36*
X139788362Y-95623545D02*
X139876588Y-95632234D01*
X140046389Y-95683743D01*
X140046392Y-95683745D01*
X140046393Y-95683745D01*
X140202874Y-95767385D01*
X140340043Y-95879957D01*
X140452615Y-96017126D01*
X140536255Y-96173607D01*
X140536257Y-96173611D01*
X140587766Y-96343412D01*
X140605158Y-96520000D01*
X140587766Y-96696588D01*
X140536257Y-96866389D01*
X140536255Y-96866392D01*
X140536255Y-96866393D01*
X140452615Y-97022874D01*
X140340043Y-97160043D01*
X140202874Y-97272615D01*
X140046393Y-97356255D01*
X140046389Y-97356257D01*
X139876588Y-97407766D01*
X139788362Y-97416455D01*
X139744250Y-97420800D01*
X139655750Y-97420800D01*
X139611638Y-97416455D01*
X139523412Y-97407766D01*
X139353611Y-97356257D01*
X139353607Y-97356255D01*
X139197126Y-97272615D01*
X139059957Y-97160043D01*
X138947385Y-97022874D01*
X138863745Y-96866393D01*
X138863745Y-96866392D01*
X138863743Y-96866389D01*
X138812234Y-96696588D01*
X138794842Y-96520000D01*
X138812234Y-96343412D01*
X138863743Y-96173611D01*
X138863745Y-96173607D01*
X138947385Y-96017126D01*
X139059957Y-95879957D01*
X139197126Y-95767385D01*
X139353607Y-95683745D01*
X139353608Y-95683745D01*
X139353611Y-95683743D01*
X139523412Y-95632234D01*
X139611638Y-95623545D01*
X139655750Y-95619200D01*
X139744250Y-95619200D01*
X139788362Y-95623545D01*
X139788362Y-95623545D01*
G37*
G36*
X116928362Y-95623545D02*
X117016588Y-95632234D01*
X117186389Y-95683743D01*
X117186392Y-95683745D01*
X117186393Y-95683745D01*
X117342874Y-95767385D01*
X117480043Y-95879957D01*
X117592615Y-96017126D01*
X117676255Y-96173607D01*
X117676257Y-96173611D01*
X117727766Y-96343412D01*
X117745158Y-96520000D01*
X117727766Y-96696588D01*
X117676257Y-96866389D01*
X117676255Y-96866392D01*
X117676255Y-96866393D01*
X117592615Y-97022874D01*
X117480043Y-97160043D01*
X117342874Y-97272615D01*
X117186393Y-97356255D01*
X117186389Y-97356257D01*
X117016588Y-97407766D01*
X116928362Y-97416455D01*
X116884250Y-97420800D01*
X116795750Y-97420800D01*
X116751638Y-97416455D01*
X116663412Y-97407766D01*
X116493611Y-97356257D01*
X116493607Y-97356255D01*
X116337126Y-97272615D01*
X116199957Y-97160043D01*
X116087385Y-97022874D01*
X116003745Y-96866393D01*
X116003745Y-96866392D01*
X116003743Y-96866389D01*
X115952234Y-96696588D01*
X115934842Y-96520000D01*
X115952234Y-96343412D01*
X116003743Y-96173611D01*
X116003745Y-96173607D01*
X116087385Y-96017126D01*
X116199957Y-95879957D01*
X116337126Y-95767385D01*
X116493607Y-95683745D01*
X116493608Y-95683745D01*
X116493611Y-95683743D01*
X116663412Y-95632234D01*
X116751638Y-95623545D01*
X116795750Y-95619200D01*
X116884250Y-95619200D01*
X116928362Y-95623545D01*
X116928362Y-95623545D01*
G37*
G36*
X132168362Y-95623545D02*
X132256588Y-95632234D01*
X132426389Y-95683743D01*
X132426392Y-95683745D01*
X132426393Y-95683745D01*
X132582874Y-95767385D01*
X132720043Y-95879957D01*
X132832615Y-96017126D01*
X132916255Y-96173607D01*
X132916257Y-96173611D01*
X132967766Y-96343412D01*
X132985158Y-96520000D01*
X132967766Y-96696588D01*
X132916257Y-96866389D01*
X132916255Y-96866392D01*
X132916255Y-96866393D01*
X132832615Y-97022874D01*
X132720043Y-97160043D01*
X132582874Y-97272615D01*
X132426393Y-97356255D01*
X132426389Y-97356257D01*
X132256588Y-97407766D01*
X132168362Y-97416455D01*
X132124250Y-97420800D01*
X132035750Y-97420800D01*
X131991638Y-97416455D01*
X131903412Y-97407766D01*
X131733611Y-97356257D01*
X131733607Y-97356255D01*
X131577126Y-97272615D01*
X131439957Y-97160043D01*
X131327385Y-97022874D01*
X131243745Y-96866393D01*
X131243745Y-96866392D01*
X131243743Y-96866389D01*
X131192234Y-96696588D01*
X131174842Y-96520000D01*
X131192234Y-96343412D01*
X131243743Y-96173611D01*
X131243745Y-96173607D01*
X131327385Y-96017126D01*
X131439957Y-95879957D01*
X131577126Y-95767385D01*
X131733607Y-95683745D01*
X131733608Y-95683745D01*
X131733611Y-95683743D01*
X131903412Y-95632234D01*
X131991638Y-95623545D01*
X132035750Y-95619200D01*
X132124250Y-95619200D01*
X132168362Y-95623545D01*
X132168362Y-95623545D01*
G37*
G36*
X129628362Y-95623545D02*
X129716588Y-95632234D01*
X129886389Y-95683743D01*
X129886392Y-95683745D01*
X129886393Y-95683745D01*
X130042874Y-95767385D01*
X130180043Y-95879957D01*
X130292615Y-96017126D01*
X130376255Y-96173607D01*
X130376257Y-96173611D01*
X130427766Y-96343412D01*
X130445158Y-96520000D01*
X130427766Y-96696588D01*
X130376257Y-96866389D01*
X130376255Y-96866392D01*
X130376255Y-96866393D01*
X130292615Y-97022874D01*
X130180043Y-97160043D01*
X130042874Y-97272615D01*
X129886393Y-97356255D01*
X129886389Y-97356257D01*
X129716588Y-97407766D01*
X129628362Y-97416455D01*
X129584250Y-97420800D01*
X129495750Y-97420800D01*
X129451638Y-97416455D01*
X129363412Y-97407766D01*
X129193611Y-97356257D01*
X129193607Y-97356255D01*
X129037126Y-97272615D01*
X128899957Y-97160043D01*
X128787385Y-97022874D01*
X128703745Y-96866393D01*
X128703745Y-96866392D01*
X128703743Y-96866389D01*
X128652234Y-96696588D01*
X128634842Y-96520000D01*
X128652234Y-96343412D01*
X128703743Y-96173611D01*
X128703745Y-96173607D01*
X128787385Y-96017126D01*
X128899957Y-95879957D01*
X129037126Y-95767385D01*
X129193607Y-95683745D01*
X129193608Y-95683745D01*
X129193611Y-95683743D01*
X129363412Y-95632234D01*
X129451638Y-95623545D01*
X129495750Y-95619200D01*
X129584250Y-95619200D01*
X129628362Y-95623545D01*
X129628362Y-95623545D01*
G37*
G36*
X134708362Y-95623545D02*
X134796588Y-95632234D01*
X134966389Y-95683743D01*
X134966392Y-95683745D01*
X134966393Y-95683745D01*
X135122874Y-95767385D01*
X135260043Y-95879957D01*
X135372615Y-96017126D01*
X135456255Y-96173607D01*
X135456257Y-96173611D01*
X135507766Y-96343412D01*
X135525158Y-96520000D01*
X135507766Y-96696588D01*
X135456257Y-96866389D01*
X135456255Y-96866392D01*
X135456255Y-96866393D01*
X135372615Y-97022874D01*
X135260043Y-97160043D01*
X135122874Y-97272615D01*
X134966393Y-97356255D01*
X134966389Y-97356257D01*
X134796588Y-97407766D01*
X134708362Y-97416455D01*
X134664250Y-97420800D01*
X134575750Y-97420800D01*
X134531638Y-97416455D01*
X134443412Y-97407766D01*
X134273611Y-97356257D01*
X134273607Y-97356255D01*
X134117126Y-97272615D01*
X133979957Y-97160043D01*
X133867385Y-97022874D01*
X133783745Y-96866393D01*
X133783745Y-96866392D01*
X133783743Y-96866389D01*
X133732234Y-96696588D01*
X133714842Y-96520000D01*
X133732234Y-96343412D01*
X133783743Y-96173611D01*
X133783745Y-96173607D01*
X133867385Y-96017126D01*
X133979957Y-95879957D01*
X134117126Y-95767385D01*
X134273607Y-95683745D01*
X134273608Y-95683745D01*
X134273611Y-95683743D01*
X134443412Y-95632234D01*
X134531638Y-95623545D01*
X134575750Y-95619200D01*
X134664250Y-95619200D01*
X134708362Y-95623545D01*
X134708362Y-95623545D01*
G37*
G36*
X127088362Y-95623545D02*
X127176588Y-95632234D01*
X127346389Y-95683743D01*
X127346392Y-95683745D01*
X127346393Y-95683745D01*
X127502874Y-95767385D01*
X127640043Y-95879957D01*
X127752615Y-96017126D01*
X127836255Y-96173607D01*
X127836257Y-96173611D01*
X127887766Y-96343412D01*
X127905158Y-96520000D01*
X127887766Y-96696588D01*
X127836257Y-96866389D01*
X127836255Y-96866392D01*
X127836255Y-96866393D01*
X127752615Y-97022874D01*
X127640043Y-97160043D01*
X127502874Y-97272615D01*
X127346393Y-97356255D01*
X127346389Y-97356257D01*
X127176588Y-97407766D01*
X127088362Y-97416455D01*
X127044250Y-97420800D01*
X126955750Y-97420800D01*
X126911638Y-97416455D01*
X126823412Y-97407766D01*
X126653611Y-97356257D01*
X126653607Y-97356255D01*
X126497126Y-97272615D01*
X126359957Y-97160043D01*
X126247385Y-97022874D01*
X126163745Y-96866393D01*
X126163745Y-96866392D01*
X126163743Y-96866389D01*
X126112234Y-96696588D01*
X126094842Y-96520000D01*
X126112234Y-96343412D01*
X126163743Y-96173611D01*
X126163745Y-96173607D01*
X126247385Y-96017126D01*
X126359957Y-95879957D01*
X126497126Y-95767385D01*
X126653607Y-95683745D01*
X126653608Y-95683745D01*
X126653611Y-95683743D01*
X126823412Y-95632234D01*
X126911638Y-95623545D01*
X126955750Y-95619200D01*
X127044250Y-95619200D01*
X127088362Y-95623545D01*
X127088362Y-95623545D01*
G37*
G36*
X119468362Y-95623545D02*
X119556588Y-95632234D01*
X119726389Y-95683743D01*
X119726392Y-95683745D01*
X119726393Y-95683745D01*
X119882874Y-95767385D01*
X120020043Y-95879957D01*
X120132615Y-96017126D01*
X120216255Y-96173607D01*
X120216257Y-96173611D01*
X120267766Y-96343412D01*
X120285158Y-96520000D01*
X120267766Y-96696588D01*
X120216257Y-96866389D01*
X120216255Y-96866392D01*
X120216255Y-96866393D01*
X120132615Y-97022874D01*
X120020043Y-97160043D01*
X119882874Y-97272615D01*
X119726393Y-97356255D01*
X119726389Y-97356257D01*
X119556588Y-97407766D01*
X119468362Y-97416455D01*
X119424250Y-97420800D01*
X119335750Y-97420800D01*
X119291638Y-97416455D01*
X119203412Y-97407766D01*
X119033611Y-97356257D01*
X119033607Y-97356255D01*
X118877126Y-97272615D01*
X118739957Y-97160043D01*
X118627385Y-97022874D01*
X118543745Y-96866393D01*
X118543745Y-96866392D01*
X118543743Y-96866389D01*
X118492234Y-96696588D01*
X118474842Y-96520000D01*
X118492234Y-96343412D01*
X118543743Y-96173611D01*
X118543745Y-96173607D01*
X118627385Y-96017126D01*
X118739957Y-95879957D01*
X118877126Y-95767385D01*
X119033607Y-95683745D01*
X119033608Y-95683745D01*
X119033611Y-95683743D01*
X119203412Y-95632234D01*
X119291638Y-95623545D01*
X119335750Y-95619200D01*
X119424250Y-95619200D01*
X119468362Y-95623545D01*
X119468362Y-95623545D01*
G37*
G36*
X124548362Y-95623545D02*
X124636588Y-95632234D01*
X124806389Y-95683743D01*
X124806392Y-95683745D01*
X124806393Y-95683745D01*
X124962874Y-95767385D01*
X125100043Y-95879957D01*
X125212615Y-96017126D01*
X125296255Y-96173607D01*
X125296257Y-96173611D01*
X125347766Y-96343412D01*
X125365158Y-96520000D01*
X125347766Y-96696588D01*
X125296257Y-96866389D01*
X125296255Y-96866392D01*
X125296255Y-96866393D01*
X125212615Y-97022874D01*
X125100043Y-97160043D01*
X124962874Y-97272615D01*
X124806393Y-97356255D01*
X124806389Y-97356257D01*
X124636588Y-97407766D01*
X124548362Y-97416455D01*
X124504250Y-97420800D01*
X124415750Y-97420800D01*
X124371638Y-97416455D01*
X124283412Y-97407766D01*
X124113611Y-97356257D01*
X124113607Y-97356255D01*
X123957126Y-97272615D01*
X123819957Y-97160043D01*
X123707385Y-97022874D01*
X123623745Y-96866393D01*
X123623745Y-96866392D01*
X123623743Y-96866389D01*
X123572234Y-96696588D01*
X123554842Y-96520000D01*
X123572234Y-96343412D01*
X123623743Y-96173611D01*
X123623745Y-96173607D01*
X123707385Y-96017126D01*
X123819957Y-95879957D01*
X123957126Y-95767385D01*
X124113607Y-95683745D01*
X124113608Y-95683745D01*
X124113611Y-95683743D01*
X124283412Y-95632234D01*
X124371638Y-95623545D01*
X124415750Y-95619200D01*
X124504250Y-95619200D01*
X124548362Y-95623545D01*
X124548362Y-95623545D01*
G37*
G36*
X122008362Y-95623545D02*
X122096588Y-95632234D01*
X122266389Y-95683743D01*
X122266392Y-95683745D01*
X122266393Y-95683745D01*
X122422874Y-95767385D01*
X122560043Y-95879957D01*
X122672615Y-96017126D01*
X122756255Y-96173607D01*
X122756257Y-96173611D01*
X122807766Y-96343412D01*
X122825158Y-96520000D01*
X122807766Y-96696588D01*
X122756257Y-96866389D01*
X122756255Y-96866392D01*
X122756255Y-96866393D01*
X122672615Y-97022874D01*
X122560043Y-97160043D01*
X122422874Y-97272615D01*
X122266393Y-97356255D01*
X122266389Y-97356257D01*
X122096588Y-97407766D01*
X122008362Y-97416455D01*
X121964250Y-97420800D01*
X121875750Y-97420800D01*
X121831638Y-97416455D01*
X121743412Y-97407766D01*
X121573611Y-97356257D01*
X121573607Y-97356255D01*
X121417126Y-97272615D01*
X121279957Y-97160043D01*
X121167385Y-97022874D01*
X121083745Y-96866393D01*
X121083745Y-96866392D01*
X121083743Y-96866389D01*
X121032234Y-96696588D01*
X121014842Y-96520000D01*
X121032234Y-96343412D01*
X121083743Y-96173611D01*
X121083745Y-96173607D01*
X121167385Y-96017126D01*
X121279957Y-95879957D01*
X121417126Y-95767385D01*
X121573607Y-95683745D01*
X121573608Y-95683745D01*
X121573611Y-95683743D01*
X121743412Y-95632234D01*
X121831638Y-95623545D01*
X121875750Y-95619200D01*
X121964250Y-95619200D01*
X122008362Y-95623545D01*
X122008362Y-95623545D01*
G37*
G36*
X109308362Y-93083545D02*
X109396588Y-93092234D01*
X109566389Y-93143743D01*
X109566392Y-93143745D01*
X109566393Y-93143745D01*
X109722874Y-93227385D01*
X109860043Y-93339957D01*
X109972615Y-93477126D01*
X110056255Y-93633607D01*
X110056257Y-93633611D01*
X110107766Y-93803412D01*
X110125158Y-93980000D01*
X110107766Y-94156588D01*
X110056257Y-94326389D01*
X110056255Y-94326392D01*
X110056255Y-94326393D01*
X109972615Y-94482874D01*
X109860043Y-94620043D01*
X109722874Y-94732615D01*
X109566393Y-94816255D01*
X109566389Y-94816257D01*
X109396588Y-94867766D01*
X109308362Y-94876455D01*
X109264250Y-94880800D01*
X109175750Y-94880800D01*
X109131638Y-94876455D01*
X109043412Y-94867766D01*
X108873611Y-94816257D01*
X108873607Y-94816255D01*
X108717126Y-94732615D01*
X108579957Y-94620043D01*
X108467385Y-94482874D01*
X108383745Y-94326393D01*
X108383745Y-94326392D01*
X108383743Y-94326389D01*
X108332234Y-94156588D01*
X108314842Y-93980000D01*
X108332234Y-93803412D01*
X108383743Y-93633611D01*
X108383745Y-93633607D01*
X108467385Y-93477126D01*
X108579957Y-93339957D01*
X108717126Y-93227385D01*
X108873607Y-93143745D01*
X108873608Y-93143745D01*
X108873611Y-93143743D01*
X109043412Y-93092234D01*
X109131638Y-93083545D01*
X109175750Y-93079200D01*
X109264250Y-93079200D01*
X109308362Y-93083545D01*
X109308362Y-93083545D01*
G37*
G36*
X132168362Y-93083545D02*
X132256588Y-93092234D01*
X132426389Y-93143743D01*
X132426392Y-93143745D01*
X132426393Y-93143745D01*
X132582874Y-93227385D01*
X132720043Y-93339957D01*
X132832615Y-93477126D01*
X132916255Y-93633607D01*
X132916257Y-93633611D01*
X132967766Y-93803412D01*
X132985158Y-93980000D01*
X132967766Y-94156588D01*
X132916257Y-94326389D01*
X132916255Y-94326392D01*
X132916255Y-94326393D01*
X132832615Y-94482874D01*
X132720043Y-94620043D01*
X132582874Y-94732615D01*
X132426393Y-94816255D01*
X132426389Y-94816257D01*
X132256588Y-94867766D01*
X132168362Y-94876455D01*
X132124250Y-94880800D01*
X132035750Y-94880800D01*
X131991638Y-94876455D01*
X131903412Y-94867766D01*
X131733611Y-94816257D01*
X131733607Y-94816255D01*
X131577126Y-94732615D01*
X131439957Y-94620043D01*
X131327385Y-94482874D01*
X131243745Y-94326393D01*
X131243745Y-94326392D01*
X131243743Y-94326389D01*
X131192234Y-94156588D01*
X131174842Y-93980000D01*
X131192234Y-93803412D01*
X131243743Y-93633611D01*
X131243745Y-93633607D01*
X131327385Y-93477126D01*
X131439957Y-93339957D01*
X131577126Y-93227385D01*
X131733607Y-93143745D01*
X131733608Y-93143745D01*
X131733611Y-93143743D01*
X131903412Y-93092234D01*
X131991638Y-93083545D01*
X132035750Y-93079200D01*
X132124250Y-93079200D01*
X132168362Y-93083545D01*
X132168362Y-93083545D01*
G37*
G36*
X129628362Y-93083545D02*
X129716588Y-93092234D01*
X129886389Y-93143743D01*
X129886392Y-93143745D01*
X129886393Y-93143745D01*
X130042874Y-93227385D01*
X130180043Y-93339957D01*
X130292615Y-93477126D01*
X130376255Y-93633607D01*
X130376257Y-93633611D01*
X130427766Y-93803412D01*
X130445158Y-93980000D01*
X130427766Y-94156588D01*
X130376257Y-94326389D01*
X130376255Y-94326392D01*
X130376255Y-94326393D01*
X130292615Y-94482874D01*
X130180043Y-94620043D01*
X130042874Y-94732615D01*
X129886393Y-94816255D01*
X129886389Y-94816257D01*
X129716588Y-94867766D01*
X129628362Y-94876455D01*
X129584250Y-94880800D01*
X129495750Y-94880800D01*
X129451638Y-94876455D01*
X129363412Y-94867766D01*
X129193611Y-94816257D01*
X129193607Y-94816255D01*
X129037126Y-94732615D01*
X128899957Y-94620043D01*
X128787385Y-94482874D01*
X128703745Y-94326393D01*
X128703745Y-94326392D01*
X128703743Y-94326389D01*
X128652234Y-94156588D01*
X128634842Y-93980000D01*
X128652234Y-93803412D01*
X128703743Y-93633611D01*
X128703745Y-93633607D01*
X128787385Y-93477126D01*
X128899957Y-93339957D01*
X129037126Y-93227385D01*
X129193607Y-93143745D01*
X129193608Y-93143745D01*
X129193611Y-93143743D01*
X129363412Y-93092234D01*
X129451638Y-93083545D01*
X129495750Y-93079200D01*
X129584250Y-93079200D01*
X129628362Y-93083545D01*
X129628362Y-93083545D01*
G37*
G36*
X134708362Y-93083545D02*
X134796588Y-93092234D01*
X134966389Y-93143743D01*
X134966392Y-93143745D01*
X134966393Y-93143745D01*
X135122874Y-93227385D01*
X135260043Y-93339957D01*
X135372615Y-93477126D01*
X135456255Y-93633607D01*
X135456257Y-93633611D01*
X135507766Y-93803412D01*
X135525158Y-93980000D01*
X135507766Y-94156588D01*
X135456257Y-94326389D01*
X135456255Y-94326392D01*
X135456255Y-94326393D01*
X135372615Y-94482874D01*
X135260043Y-94620043D01*
X135122874Y-94732615D01*
X134966393Y-94816255D01*
X134966389Y-94816257D01*
X134796588Y-94867766D01*
X134708362Y-94876455D01*
X134664250Y-94880800D01*
X134575750Y-94880800D01*
X134531638Y-94876455D01*
X134443412Y-94867766D01*
X134273611Y-94816257D01*
X134273607Y-94816255D01*
X134117126Y-94732615D01*
X133979957Y-94620043D01*
X133867385Y-94482874D01*
X133783745Y-94326393D01*
X133783745Y-94326392D01*
X133783743Y-94326389D01*
X133732234Y-94156588D01*
X133714842Y-93980000D01*
X133732234Y-93803412D01*
X133783743Y-93633611D01*
X133783745Y-93633607D01*
X133867385Y-93477126D01*
X133979957Y-93339957D01*
X134117126Y-93227385D01*
X134273607Y-93143745D01*
X134273608Y-93143745D01*
X134273611Y-93143743D01*
X134443412Y-93092234D01*
X134531638Y-93083545D01*
X134575750Y-93079200D01*
X134664250Y-93079200D01*
X134708362Y-93083545D01*
X134708362Y-93083545D01*
G37*
G36*
X137248362Y-93083545D02*
X137336588Y-93092234D01*
X137506389Y-93143743D01*
X137506392Y-93143745D01*
X137506393Y-93143745D01*
X137662874Y-93227385D01*
X137800043Y-93339957D01*
X137912615Y-93477126D01*
X137996255Y-93633607D01*
X137996257Y-93633611D01*
X138047766Y-93803412D01*
X138065158Y-93980000D01*
X138047766Y-94156588D01*
X137996257Y-94326389D01*
X137996255Y-94326392D01*
X137996255Y-94326393D01*
X137912615Y-94482874D01*
X137800043Y-94620043D01*
X137662874Y-94732615D01*
X137506393Y-94816255D01*
X137506389Y-94816257D01*
X137336588Y-94867766D01*
X137248362Y-94876455D01*
X137204250Y-94880800D01*
X137115750Y-94880800D01*
X137071638Y-94876455D01*
X136983412Y-94867766D01*
X136813611Y-94816257D01*
X136813607Y-94816255D01*
X136657126Y-94732615D01*
X136519957Y-94620043D01*
X136407385Y-94482874D01*
X136323745Y-94326393D01*
X136323745Y-94326392D01*
X136323743Y-94326389D01*
X136272234Y-94156588D01*
X136254842Y-93980000D01*
X136272234Y-93803412D01*
X136323743Y-93633611D01*
X136323745Y-93633607D01*
X136407385Y-93477126D01*
X136519957Y-93339957D01*
X136657126Y-93227385D01*
X136813607Y-93143745D01*
X136813608Y-93143745D01*
X136813611Y-93143743D01*
X136983412Y-93092234D01*
X137071638Y-93083545D01*
X137115750Y-93079200D01*
X137204250Y-93079200D01*
X137248362Y-93083545D01*
X137248362Y-93083545D01*
G37*
G36*
X127088362Y-93083545D02*
X127176588Y-93092234D01*
X127346389Y-93143743D01*
X127346392Y-93143745D01*
X127346393Y-93143745D01*
X127502874Y-93227385D01*
X127640043Y-93339957D01*
X127752615Y-93477126D01*
X127836255Y-93633607D01*
X127836257Y-93633611D01*
X127887766Y-93803412D01*
X127905158Y-93980000D01*
X127887766Y-94156588D01*
X127836257Y-94326389D01*
X127836255Y-94326392D01*
X127836255Y-94326393D01*
X127752615Y-94482874D01*
X127640043Y-94620043D01*
X127502874Y-94732615D01*
X127346393Y-94816255D01*
X127346389Y-94816257D01*
X127176588Y-94867766D01*
X127088362Y-94876455D01*
X127044250Y-94880800D01*
X126955750Y-94880800D01*
X126911638Y-94876455D01*
X126823412Y-94867766D01*
X126653611Y-94816257D01*
X126653607Y-94816255D01*
X126497126Y-94732615D01*
X126359957Y-94620043D01*
X126247385Y-94482874D01*
X126163745Y-94326393D01*
X126163745Y-94326392D01*
X126163743Y-94326389D01*
X126112234Y-94156588D01*
X126094842Y-93980000D01*
X126112234Y-93803412D01*
X126163743Y-93633611D01*
X126163745Y-93633607D01*
X126247385Y-93477126D01*
X126359957Y-93339957D01*
X126497126Y-93227385D01*
X126653607Y-93143745D01*
X126653608Y-93143745D01*
X126653611Y-93143743D01*
X126823412Y-93092234D01*
X126911638Y-93083545D01*
X126955750Y-93079200D01*
X127044250Y-93079200D01*
X127088362Y-93083545D01*
X127088362Y-93083545D01*
G37*
G36*
X139788362Y-93083545D02*
X139876588Y-93092234D01*
X140046389Y-93143743D01*
X140046392Y-93143745D01*
X140046393Y-93143745D01*
X140202874Y-93227385D01*
X140340043Y-93339957D01*
X140452615Y-93477126D01*
X140536255Y-93633607D01*
X140536257Y-93633611D01*
X140587766Y-93803412D01*
X140605158Y-93980000D01*
X140587766Y-94156588D01*
X140536257Y-94326389D01*
X140536255Y-94326392D01*
X140536255Y-94326393D01*
X140452615Y-94482874D01*
X140340043Y-94620043D01*
X140202874Y-94732615D01*
X140046393Y-94816255D01*
X140046389Y-94816257D01*
X139876588Y-94867766D01*
X139788362Y-94876455D01*
X139744250Y-94880800D01*
X139655750Y-94880800D01*
X139611638Y-94876455D01*
X139523412Y-94867766D01*
X139353611Y-94816257D01*
X139353607Y-94816255D01*
X139197126Y-94732615D01*
X139059957Y-94620043D01*
X138947385Y-94482874D01*
X138863745Y-94326393D01*
X138863745Y-94326392D01*
X138863743Y-94326389D01*
X138812234Y-94156588D01*
X138794842Y-93980000D01*
X138812234Y-93803412D01*
X138863743Y-93633611D01*
X138863745Y-93633607D01*
X138947385Y-93477126D01*
X139059957Y-93339957D01*
X139197126Y-93227385D01*
X139353607Y-93143745D01*
X139353608Y-93143745D01*
X139353611Y-93143743D01*
X139523412Y-93092234D01*
X139611638Y-93083545D01*
X139655750Y-93079200D01*
X139744250Y-93079200D01*
X139788362Y-93083545D01*
X139788362Y-93083545D01*
G37*
G36*
X122008362Y-93083545D02*
X122096588Y-93092234D01*
X122266389Y-93143743D01*
X122266392Y-93143745D01*
X122266393Y-93143745D01*
X122422874Y-93227385D01*
X122560043Y-93339957D01*
X122672615Y-93477126D01*
X122756255Y-93633607D01*
X122756257Y-93633611D01*
X122807766Y-93803412D01*
X122825158Y-93980000D01*
X122807766Y-94156588D01*
X122756257Y-94326389D01*
X122756255Y-94326392D01*
X122756255Y-94326393D01*
X122672615Y-94482874D01*
X122560043Y-94620043D01*
X122422874Y-94732615D01*
X122266393Y-94816255D01*
X122266389Y-94816257D01*
X122096588Y-94867766D01*
X122008362Y-94876455D01*
X121964250Y-94880800D01*
X121875750Y-94880800D01*
X121831638Y-94876455D01*
X121743412Y-94867766D01*
X121573611Y-94816257D01*
X121573607Y-94816255D01*
X121417126Y-94732615D01*
X121279957Y-94620043D01*
X121167385Y-94482874D01*
X121083745Y-94326393D01*
X121083745Y-94326392D01*
X121083743Y-94326389D01*
X121032234Y-94156588D01*
X121014842Y-93980000D01*
X121032234Y-93803412D01*
X121083743Y-93633611D01*
X121083745Y-93633607D01*
X121167385Y-93477126D01*
X121279957Y-93339957D01*
X121417126Y-93227385D01*
X121573607Y-93143745D01*
X121573608Y-93143745D01*
X121573611Y-93143743D01*
X121743412Y-93092234D01*
X121831638Y-93083545D01*
X121875750Y-93079200D01*
X121964250Y-93079200D01*
X122008362Y-93083545D01*
X122008362Y-93083545D01*
G37*
G36*
X119468362Y-93083545D02*
X119556588Y-93092234D01*
X119726389Y-93143743D01*
X119726392Y-93143745D01*
X119726393Y-93143745D01*
X119882874Y-93227385D01*
X120020043Y-93339957D01*
X120132615Y-93477126D01*
X120216255Y-93633607D01*
X120216257Y-93633611D01*
X120267766Y-93803412D01*
X120285158Y-93980000D01*
X120267766Y-94156588D01*
X120216257Y-94326389D01*
X120216255Y-94326392D01*
X120216255Y-94326393D01*
X120132615Y-94482874D01*
X120020043Y-94620043D01*
X119882874Y-94732615D01*
X119726393Y-94816255D01*
X119726389Y-94816257D01*
X119556588Y-94867766D01*
X119468362Y-94876455D01*
X119424250Y-94880800D01*
X119335750Y-94880800D01*
X119291638Y-94876455D01*
X119203412Y-94867766D01*
X119033611Y-94816257D01*
X119033607Y-94816255D01*
X118877126Y-94732615D01*
X118739957Y-94620043D01*
X118627385Y-94482874D01*
X118543745Y-94326393D01*
X118543745Y-94326392D01*
X118543743Y-94326389D01*
X118492234Y-94156588D01*
X118474842Y-93980000D01*
X118492234Y-93803412D01*
X118543743Y-93633611D01*
X118543745Y-93633607D01*
X118627385Y-93477126D01*
X118739957Y-93339957D01*
X118877126Y-93227385D01*
X119033607Y-93143745D01*
X119033608Y-93143745D01*
X119033611Y-93143743D01*
X119203412Y-93092234D01*
X119291638Y-93083545D01*
X119335750Y-93079200D01*
X119424250Y-93079200D01*
X119468362Y-93083545D01*
X119468362Y-93083545D01*
G37*
G36*
X116928362Y-93083545D02*
X117016588Y-93092234D01*
X117186389Y-93143743D01*
X117186392Y-93143745D01*
X117186393Y-93143745D01*
X117342874Y-93227385D01*
X117480043Y-93339957D01*
X117592615Y-93477126D01*
X117676255Y-93633607D01*
X117676257Y-93633611D01*
X117727766Y-93803412D01*
X117745158Y-93980000D01*
X117727766Y-94156588D01*
X117676257Y-94326389D01*
X117676255Y-94326392D01*
X117676255Y-94326393D01*
X117592615Y-94482874D01*
X117480043Y-94620043D01*
X117342874Y-94732615D01*
X117186393Y-94816255D01*
X117186389Y-94816257D01*
X117016588Y-94867766D01*
X116928362Y-94876455D01*
X116884250Y-94880800D01*
X116795750Y-94880800D01*
X116751638Y-94876455D01*
X116663412Y-94867766D01*
X116493611Y-94816257D01*
X116493607Y-94816255D01*
X116337126Y-94732615D01*
X116199957Y-94620043D01*
X116087385Y-94482874D01*
X116003745Y-94326393D01*
X116003745Y-94326392D01*
X116003743Y-94326389D01*
X115952234Y-94156588D01*
X115934842Y-93980000D01*
X115952234Y-93803412D01*
X116003743Y-93633611D01*
X116003745Y-93633607D01*
X116087385Y-93477126D01*
X116199957Y-93339957D01*
X116337126Y-93227385D01*
X116493607Y-93143745D01*
X116493608Y-93143745D01*
X116493611Y-93143743D01*
X116663412Y-93092234D01*
X116751638Y-93083545D01*
X116795750Y-93079200D01*
X116884250Y-93079200D01*
X116928362Y-93083545D01*
X116928362Y-93083545D01*
G37*
G36*
X111848362Y-93083545D02*
X111936588Y-93092234D01*
X112106389Y-93143743D01*
X112106392Y-93143745D01*
X112106393Y-93143745D01*
X112262874Y-93227385D01*
X112400043Y-93339957D01*
X112512615Y-93477126D01*
X112596255Y-93633607D01*
X112596257Y-93633611D01*
X112647766Y-93803412D01*
X112665158Y-93980000D01*
X112647766Y-94156588D01*
X112596257Y-94326389D01*
X112596255Y-94326392D01*
X112596255Y-94326393D01*
X112512615Y-94482874D01*
X112400043Y-94620043D01*
X112262874Y-94732615D01*
X112106393Y-94816255D01*
X112106389Y-94816257D01*
X111936588Y-94867766D01*
X111848362Y-94876455D01*
X111804250Y-94880800D01*
X111715750Y-94880800D01*
X111671638Y-94876455D01*
X111583412Y-94867766D01*
X111413611Y-94816257D01*
X111413607Y-94816255D01*
X111257126Y-94732615D01*
X111119957Y-94620043D01*
X111007385Y-94482874D01*
X110923745Y-94326393D01*
X110923745Y-94326392D01*
X110923743Y-94326389D01*
X110872234Y-94156588D01*
X110854842Y-93980000D01*
X110872234Y-93803412D01*
X110923743Y-93633611D01*
X110923745Y-93633607D01*
X111007385Y-93477126D01*
X111119957Y-93339957D01*
X111257126Y-93227385D01*
X111413607Y-93143745D01*
X111413608Y-93143745D01*
X111413611Y-93143743D01*
X111583412Y-93092234D01*
X111671638Y-93083545D01*
X111715750Y-93079200D01*
X111804250Y-93079200D01*
X111848362Y-93083545D01*
X111848362Y-93083545D01*
G37*
G36*
X114388362Y-93083545D02*
X114476588Y-93092234D01*
X114646389Y-93143743D01*
X114646392Y-93143745D01*
X114646393Y-93143745D01*
X114802874Y-93227385D01*
X114940043Y-93339957D01*
X115052615Y-93477126D01*
X115136255Y-93633607D01*
X115136257Y-93633611D01*
X115187766Y-93803412D01*
X115205158Y-93980000D01*
X115187766Y-94156588D01*
X115136257Y-94326389D01*
X115136255Y-94326392D01*
X115136255Y-94326393D01*
X115052615Y-94482874D01*
X114940043Y-94620043D01*
X114802874Y-94732615D01*
X114646393Y-94816255D01*
X114646389Y-94816257D01*
X114476588Y-94867766D01*
X114388362Y-94876455D01*
X114344250Y-94880800D01*
X114255750Y-94880800D01*
X114211638Y-94876455D01*
X114123412Y-94867766D01*
X113953611Y-94816257D01*
X113953607Y-94816255D01*
X113797126Y-94732615D01*
X113659957Y-94620043D01*
X113547385Y-94482874D01*
X113463745Y-94326393D01*
X113463745Y-94326392D01*
X113463743Y-94326389D01*
X113412234Y-94156588D01*
X113394842Y-93980000D01*
X113412234Y-93803412D01*
X113463743Y-93633611D01*
X113463745Y-93633607D01*
X113547385Y-93477126D01*
X113659957Y-93339957D01*
X113797126Y-93227385D01*
X113953607Y-93143745D01*
X113953608Y-93143745D01*
X113953611Y-93143743D01*
X114123412Y-93092234D01*
X114211638Y-93083545D01*
X114255750Y-93079200D01*
X114344250Y-93079200D01*
X114388362Y-93083545D01*
X114388362Y-93083545D01*
G37*
G36*
X142328362Y-93083545D02*
X142416588Y-93092234D01*
X142586389Y-93143743D01*
X142586392Y-93143745D01*
X142586393Y-93143745D01*
X142742874Y-93227385D01*
X142880043Y-93339957D01*
X142992615Y-93477126D01*
X143076255Y-93633607D01*
X143076257Y-93633611D01*
X143127766Y-93803412D01*
X143145158Y-93980000D01*
X143127766Y-94156588D01*
X143076257Y-94326389D01*
X143076255Y-94326392D01*
X143076255Y-94326393D01*
X142992615Y-94482874D01*
X142880043Y-94620043D01*
X142742874Y-94732615D01*
X142586393Y-94816255D01*
X142586389Y-94816257D01*
X142416588Y-94867766D01*
X142328362Y-94876455D01*
X142284250Y-94880800D01*
X142195750Y-94880800D01*
X142151638Y-94876455D01*
X142063412Y-94867766D01*
X141893611Y-94816257D01*
X141893607Y-94816255D01*
X141737126Y-94732615D01*
X141599957Y-94620043D01*
X141487385Y-94482874D01*
X141403745Y-94326393D01*
X141403745Y-94326392D01*
X141403743Y-94326389D01*
X141352234Y-94156588D01*
X141334842Y-93980000D01*
X141352234Y-93803412D01*
X141403743Y-93633611D01*
X141403745Y-93633607D01*
X141487385Y-93477126D01*
X141599957Y-93339957D01*
X141737126Y-93227385D01*
X141893607Y-93143745D01*
X141893608Y-93143745D01*
X141893611Y-93143743D01*
X142063412Y-93092234D01*
X142151638Y-93083545D01*
X142195750Y-93079200D01*
X142284250Y-93079200D01*
X142328362Y-93083545D01*
X142328362Y-93083545D01*
G37*
G36*
X124548362Y-93083545D02*
X124636588Y-93092234D01*
X124806389Y-93143743D01*
X124806392Y-93143745D01*
X124806393Y-93143745D01*
X124962874Y-93227385D01*
X125100043Y-93339957D01*
X125212615Y-93477126D01*
X125296255Y-93633607D01*
X125296257Y-93633611D01*
X125347766Y-93803412D01*
X125365158Y-93980000D01*
X125347766Y-94156588D01*
X125296257Y-94326389D01*
X125296255Y-94326392D01*
X125296255Y-94326393D01*
X125212615Y-94482874D01*
X125100043Y-94620043D01*
X124962874Y-94732615D01*
X124806393Y-94816255D01*
X124806389Y-94816257D01*
X124636588Y-94867766D01*
X124548362Y-94876455D01*
X124504250Y-94880800D01*
X124415750Y-94880800D01*
X124371638Y-94876455D01*
X124283412Y-94867766D01*
X124113611Y-94816257D01*
X124113607Y-94816255D01*
X123957126Y-94732615D01*
X123819957Y-94620043D01*
X123707385Y-94482874D01*
X123623745Y-94326393D01*
X123623745Y-94326392D01*
X123623743Y-94326389D01*
X123572234Y-94156588D01*
X123554842Y-93980000D01*
X123572234Y-93803412D01*
X123623743Y-93633611D01*
X123623745Y-93633607D01*
X123707385Y-93477126D01*
X123819957Y-93339957D01*
X123957126Y-93227385D01*
X124113607Y-93143745D01*
X124113608Y-93143745D01*
X124113611Y-93143743D01*
X124283412Y-93092234D01*
X124371638Y-93083545D01*
X124415750Y-93079200D01*
X124504250Y-93079200D01*
X124548362Y-93083545D01*
X124548362Y-93083545D01*
G37*
G36*
X104411091Y-91631503D02*
X104611427Y-91714485D01*
X104791716Y-91834950D01*
X104945050Y-91988284D01*
X105065515Y-92168573D01*
X105148497Y-92368909D01*
X105190800Y-92581582D01*
X105190800Y-92798418D01*
X105148497Y-93011091D01*
X105065515Y-93211427D01*
X104945050Y-93391716D01*
X104791716Y-93545050D01*
X104611427Y-93665515D01*
X104411091Y-93748497D01*
X104198419Y-93790800D01*
X103981581Y-93790800D01*
X103768909Y-93748497D01*
X103568573Y-93665515D01*
X103388284Y-93545050D01*
X103234950Y-93391716D01*
X103114485Y-93211427D01*
X103031503Y-93011091D01*
X102989200Y-92798418D01*
X102989200Y-92581582D01*
X103031503Y-92368909D01*
X103114485Y-92168573D01*
X103234950Y-91988284D01*
X103388284Y-91834950D01*
X103568573Y-91714485D01*
X103768909Y-91631503D01*
X103981581Y-91589200D01*
X104198419Y-91589200D01*
X104411091Y-91631503D01*
X104411091Y-91631503D01*
G37*
G36*
X161735079Y-91758617D02*
X161857756Y-91795830D01*
X161970814Y-91856261D01*
X162069912Y-91937588D01*
X162151239Y-92036686D01*
X162211670Y-92149744D01*
X162248883Y-92272421D01*
X162261448Y-92400000D01*
X162248883Y-92527579D01*
X162211670Y-92650256D01*
X162151239Y-92763314D01*
X162069912Y-92862412D01*
X161970814Y-92943739D01*
X161857756Y-93004170D01*
X161735079Y-93041383D01*
X161639465Y-93050800D01*
X160875535Y-93050800D01*
X160779921Y-93041383D01*
X160657244Y-93004170D01*
X160544186Y-92943739D01*
X160445088Y-92862412D01*
X160363761Y-92763314D01*
X160303330Y-92650256D01*
X160266117Y-92527579D01*
X160253552Y-92400000D01*
X160266117Y-92272421D01*
X160303330Y-92149744D01*
X160363761Y-92036686D01*
X160445088Y-91937588D01*
X160544186Y-91856261D01*
X160657244Y-91795830D01*
X160779921Y-91758617D01*
X160875535Y-91749200D01*
X161639465Y-91749200D01*
X161735079Y-91758617D01*
X161735079Y-91758617D01*
G37*
G36*
X101870046Y-90549778D02*
X102038531Y-90619566D01*
X102190163Y-90720884D01*
X102319116Y-90849837D01*
X102420434Y-91001469D01*
X102490222Y-91169954D01*
X102525800Y-91348817D01*
X102525800Y-91531183D01*
X102490222Y-91710046D01*
X102420434Y-91878531D01*
X102319116Y-92030163D01*
X102190163Y-92159116D01*
X102038531Y-92260434D01*
X101870046Y-92330222D01*
X101691183Y-92365800D01*
X101508817Y-92365800D01*
X101329954Y-92330222D01*
X101161469Y-92260434D01*
X101009837Y-92159116D01*
X100880884Y-92030163D01*
X100779566Y-91878531D01*
X100709778Y-91710046D01*
X100674200Y-91531183D01*
X100674200Y-91348817D01*
X100709778Y-91169954D01*
X100779566Y-91001469D01*
X100880884Y-90849837D01*
X101009837Y-90720884D01*
X101161469Y-90619566D01*
X101329954Y-90549778D01*
X101508817Y-90514200D01*
X101691183Y-90514200D01*
X101870046Y-90549778D01*
X101870046Y-90549778D01*
G37*
G36*
X152488362Y-90543545D02*
X152576588Y-90552234D01*
X152746389Y-90603743D01*
X152746392Y-90603745D01*
X152746393Y-90603745D01*
X152902874Y-90687385D01*
X153040043Y-90799957D01*
X153152615Y-90937126D01*
X153203604Y-91032521D01*
X153236257Y-91093611D01*
X153287766Y-91263412D01*
X153305158Y-91440000D01*
X153287766Y-91616588D01*
X153236257Y-91786389D01*
X153236255Y-91786392D01*
X153236255Y-91786393D01*
X153152615Y-91942874D01*
X153040043Y-92080043D01*
X152902874Y-92192615D01*
X152775992Y-92260434D01*
X152746389Y-92276257D01*
X152576588Y-92327766D01*
X152488362Y-92336455D01*
X152444250Y-92340800D01*
X152355750Y-92340800D01*
X152311638Y-92336455D01*
X152223412Y-92327766D01*
X152053611Y-92276257D01*
X152024008Y-92260434D01*
X151897126Y-92192615D01*
X151759957Y-92080043D01*
X151647385Y-91942874D01*
X151563745Y-91786393D01*
X151563745Y-91786392D01*
X151563743Y-91786389D01*
X151512234Y-91616588D01*
X151494842Y-91440000D01*
X151512234Y-91263412D01*
X151563743Y-91093611D01*
X151596396Y-91032521D01*
X151647385Y-90937126D01*
X151759957Y-90799957D01*
X151897126Y-90687385D01*
X152053607Y-90603745D01*
X152053608Y-90603745D01*
X152053611Y-90603743D01*
X152223412Y-90552234D01*
X152311638Y-90543545D01*
X152355750Y-90539200D01*
X152444250Y-90539200D01*
X152488362Y-90543545D01*
X152488362Y-90543545D01*
G37*
G36*
X149948362Y-90543545D02*
X150036588Y-90552234D01*
X150206389Y-90603743D01*
X150206392Y-90603745D01*
X150206393Y-90603745D01*
X150362874Y-90687385D01*
X150500043Y-90799957D01*
X150612615Y-90937126D01*
X150663604Y-91032521D01*
X150696257Y-91093611D01*
X150747766Y-91263412D01*
X150765158Y-91440000D01*
X150747766Y-91616588D01*
X150696257Y-91786389D01*
X150696255Y-91786392D01*
X150696255Y-91786393D01*
X150612615Y-91942874D01*
X150500043Y-92080043D01*
X150362874Y-92192615D01*
X150235992Y-92260434D01*
X150206389Y-92276257D01*
X150036588Y-92327766D01*
X149948362Y-92336455D01*
X149904250Y-92340800D01*
X149815750Y-92340800D01*
X149771638Y-92336455D01*
X149683412Y-92327766D01*
X149513611Y-92276257D01*
X149484008Y-92260434D01*
X149357126Y-92192615D01*
X149219957Y-92080043D01*
X149107385Y-91942874D01*
X149023745Y-91786393D01*
X149023745Y-91786392D01*
X149023743Y-91786389D01*
X148972234Y-91616588D01*
X148954842Y-91440000D01*
X148972234Y-91263412D01*
X149023743Y-91093611D01*
X149056396Y-91032521D01*
X149107385Y-90937126D01*
X149219957Y-90799957D01*
X149357126Y-90687385D01*
X149513607Y-90603745D01*
X149513608Y-90603745D01*
X149513611Y-90603743D01*
X149683412Y-90552234D01*
X149771638Y-90543545D01*
X149815750Y-90539200D01*
X149904250Y-90539200D01*
X149948362Y-90543545D01*
X149948362Y-90543545D01*
G37*
G36*
X158783793Y-90654013D02*
X158924979Y-90712495D01*
X159052044Y-90797397D01*
X159160103Y-90905456D01*
X159245005Y-91032521D01*
X159303487Y-91173707D01*
X159333300Y-91323590D01*
X159333300Y-91476410D01*
X159303487Y-91626293D01*
X159245005Y-91767479D01*
X159160103Y-91894544D01*
X159052044Y-92002603D01*
X158924979Y-92087505D01*
X158783793Y-92145987D01*
X158633910Y-92175800D01*
X158481090Y-92175800D01*
X158331207Y-92145987D01*
X158190021Y-92087505D01*
X158062956Y-92002603D01*
X157954897Y-91894544D01*
X157869995Y-91767479D01*
X157811513Y-91626293D01*
X157781700Y-91476410D01*
X157781700Y-91323590D01*
X157811513Y-91173707D01*
X157869995Y-91032521D01*
X157954897Y-90905456D01*
X158062956Y-90797397D01*
X158190021Y-90712495D01*
X158331207Y-90654013D01*
X158481090Y-90624200D01*
X158633910Y-90624200D01*
X158783793Y-90654013D01*
X158783793Y-90654013D01*
G37*
G36*
X149948362Y-88003545D02*
X150036588Y-88012234D01*
X150206389Y-88063743D01*
X150206392Y-88063745D01*
X150206393Y-88063745D01*
X150362874Y-88147385D01*
X150500043Y-88259957D01*
X150612615Y-88397126D01*
X150696255Y-88553607D01*
X150696257Y-88553611D01*
X150747766Y-88723412D01*
X150765158Y-88900000D01*
X150747766Y-89076588D01*
X150696257Y-89246389D01*
X150696255Y-89246392D01*
X150696255Y-89246393D01*
X150612615Y-89402874D01*
X150500043Y-89540043D01*
X150362874Y-89652615D01*
X150206393Y-89736255D01*
X150206389Y-89736257D01*
X150036588Y-89787766D01*
X149948362Y-89796455D01*
X149904250Y-89800800D01*
X149815750Y-89800800D01*
X149771638Y-89796455D01*
X149683412Y-89787766D01*
X149513611Y-89736257D01*
X149513607Y-89736255D01*
X149357126Y-89652615D01*
X149219957Y-89540043D01*
X149107385Y-89402874D01*
X149023745Y-89246393D01*
X149023745Y-89246392D01*
X149023743Y-89246389D01*
X148972234Y-89076588D01*
X148954842Y-88900000D01*
X148972234Y-88723412D01*
X149023743Y-88553611D01*
X149023745Y-88553607D01*
X149107385Y-88397126D01*
X149219957Y-88259957D01*
X149357126Y-88147385D01*
X149513607Y-88063745D01*
X149513608Y-88063745D01*
X149513611Y-88063743D01*
X149683412Y-88012234D01*
X149771638Y-88003545D01*
X149815750Y-87999200D01*
X149904250Y-87999200D01*
X149948362Y-88003545D01*
X149948362Y-88003545D01*
G37*
G36*
X152488362Y-88003545D02*
X152576588Y-88012234D01*
X152746389Y-88063743D01*
X152746392Y-88063745D01*
X152746393Y-88063745D01*
X152902874Y-88147385D01*
X153040043Y-88259957D01*
X153152615Y-88397126D01*
X153236255Y-88553607D01*
X153236257Y-88553611D01*
X153287766Y-88723412D01*
X153305158Y-88900000D01*
X153287766Y-89076588D01*
X153236257Y-89246389D01*
X153236255Y-89246392D01*
X153236255Y-89246393D01*
X153152615Y-89402874D01*
X153040043Y-89540043D01*
X152902874Y-89652615D01*
X152746393Y-89736255D01*
X152746389Y-89736257D01*
X152576588Y-89787766D01*
X152488362Y-89796455D01*
X152444250Y-89800800D01*
X152355750Y-89800800D01*
X152311638Y-89796455D01*
X152223412Y-89787766D01*
X152053611Y-89736257D01*
X152053607Y-89736255D01*
X151897126Y-89652615D01*
X151759957Y-89540043D01*
X151647385Y-89402874D01*
X151563745Y-89246393D01*
X151563745Y-89246392D01*
X151563743Y-89246389D01*
X151512234Y-89076588D01*
X151494842Y-88900000D01*
X151512234Y-88723412D01*
X151563743Y-88553611D01*
X151563745Y-88553607D01*
X151647385Y-88397126D01*
X151759957Y-88259957D01*
X151897126Y-88147385D01*
X152053607Y-88063745D01*
X152053608Y-88063745D01*
X152053611Y-88063743D01*
X152223412Y-88012234D01*
X152311638Y-88003545D01*
X152355750Y-87999200D01*
X152444250Y-87999200D01*
X152488362Y-88003545D01*
X152488362Y-88003545D01*
G37*
G36*
X101870046Y-86049778D02*
X102038531Y-86119566D01*
X102190163Y-86220884D01*
X102319116Y-86349837D01*
X102420434Y-86501469D01*
X102490222Y-86669954D01*
X102525800Y-86848817D01*
X102525800Y-87031183D01*
X102490222Y-87210046D01*
X102420434Y-87378531D01*
X102319116Y-87530163D01*
X102190163Y-87659116D01*
X102038531Y-87760434D01*
X101870046Y-87830222D01*
X101691183Y-87865800D01*
X101508817Y-87865800D01*
X101329954Y-87830222D01*
X101161469Y-87760434D01*
X101009837Y-87659116D01*
X100880884Y-87530163D01*
X100779566Y-87378531D01*
X100709778Y-87210046D01*
X100674200Y-87031183D01*
X100674200Y-86848817D01*
X100709778Y-86669954D01*
X100779566Y-86501469D01*
X100880884Y-86349837D01*
X101009837Y-86220884D01*
X101161469Y-86119566D01*
X101329954Y-86049778D01*
X101508817Y-86014200D01*
X101691183Y-86014200D01*
X101870046Y-86049778D01*
X101870046Y-86049778D01*
G37*
G36*
X152488362Y-85463545D02*
X152576588Y-85472234D01*
X152746389Y-85523743D01*
X152746392Y-85523745D01*
X152746393Y-85523745D01*
X152902874Y-85607385D01*
X152902879Y-85607389D01*
X153040043Y-85719957D01*
X153096229Y-85788419D01*
X153152615Y-85857126D01*
X153229565Y-86001091D01*
X153236257Y-86013611D01*
X153287766Y-86183412D01*
X153305158Y-86360000D01*
X153287766Y-86536588D01*
X153236257Y-86706389D01*
X153236255Y-86706392D01*
X153236255Y-86706393D01*
X153152615Y-86862874D01*
X153040043Y-87000043D01*
X152902874Y-87112615D01*
X152746393Y-87196255D01*
X152746389Y-87196257D01*
X152576588Y-87247766D01*
X152488362Y-87256455D01*
X152444250Y-87260800D01*
X152355750Y-87260800D01*
X152311638Y-87256455D01*
X152223412Y-87247766D01*
X152053611Y-87196257D01*
X152053607Y-87196255D01*
X151897126Y-87112615D01*
X151759957Y-87000043D01*
X151647385Y-86862874D01*
X151563745Y-86706393D01*
X151563745Y-86706392D01*
X151563743Y-86706389D01*
X151512234Y-86536588D01*
X151494842Y-86360000D01*
X151512234Y-86183412D01*
X151563743Y-86013611D01*
X151570435Y-86001091D01*
X151647385Y-85857126D01*
X151703772Y-85788419D01*
X151759957Y-85719957D01*
X151897121Y-85607389D01*
X151897126Y-85607385D01*
X152053607Y-85523745D01*
X152053608Y-85523745D01*
X152053611Y-85523743D01*
X152223412Y-85472234D01*
X152311638Y-85463545D01*
X152355750Y-85459200D01*
X152444250Y-85459200D01*
X152488362Y-85463545D01*
X152488362Y-85463545D01*
G37*
G36*
X149948362Y-85463545D02*
X150036588Y-85472234D01*
X150206389Y-85523743D01*
X150206392Y-85523745D01*
X150206393Y-85523745D01*
X150362874Y-85607385D01*
X150362879Y-85607389D01*
X150500043Y-85719957D01*
X150556229Y-85788419D01*
X150612615Y-85857126D01*
X150689565Y-86001091D01*
X150696257Y-86013611D01*
X150747766Y-86183412D01*
X150765158Y-86360000D01*
X150747766Y-86536588D01*
X150696257Y-86706389D01*
X150696255Y-86706392D01*
X150696255Y-86706393D01*
X150612615Y-86862874D01*
X150500043Y-87000043D01*
X150362874Y-87112615D01*
X150206393Y-87196255D01*
X150206389Y-87196257D01*
X150036588Y-87247766D01*
X149948362Y-87256455D01*
X149904250Y-87260800D01*
X149815750Y-87260800D01*
X149771638Y-87256455D01*
X149683412Y-87247766D01*
X149513611Y-87196257D01*
X149513607Y-87196255D01*
X149357126Y-87112615D01*
X149219957Y-87000043D01*
X149107385Y-86862874D01*
X149023745Y-86706393D01*
X149023745Y-86706392D01*
X149023743Y-86706389D01*
X148972234Y-86536588D01*
X148954842Y-86360000D01*
X148972234Y-86183412D01*
X149023743Y-86013611D01*
X149030435Y-86001091D01*
X149107385Y-85857126D01*
X149163772Y-85788419D01*
X149219957Y-85719957D01*
X149357121Y-85607389D01*
X149357126Y-85607385D01*
X149513607Y-85523745D01*
X149513608Y-85523745D01*
X149513611Y-85523743D01*
X149683412Y-85472234D01*
X149771638Y-85463545D01*
X149815750Y-85459200D01*
X149904250Y-85459200D01*
X149948362Y-85463545D01*
X149948362Y-85463545D01*
G37*
G36*
X158783793Y-85654013D02*
X158924979Y-85712495D01*
X159052044Y-85797397D01*
X159160103Y-85905456D01*
X159245005Y-86032521D01*
X159303487Y-86173707D01*
X159333300Y-86323590D01*
X159333300Y-86476410D01*
X159303487Y-86626293D01*
X159245005Y-86767479D01*
X159160103Y-86894544D01*
X159052044Y-87002603D01*
X158924979Y-87087505D01*
X158783793Y-87145987D01*
X158633910Y-87175800D01*
X158481090Y-87175800D01*
X158331207Y-87145987D01*
X158190021Y-87087505D01*
X158062956Y-87002603D01*
X157954897Y-86894544D01*
X157869995Y-86767479D01*
X157811513Y-86626293D01*
X157781700Y-86476410D01*
X157781700Y-86323590D01*
X157811513Y-86173707D01*
X157869995Y-86032521D01*
X157954897Y-85905456D01*
X158062956Y-85797397D01*
X158190021Y-85712495D01*
X158331207Y-85654013D01*
X158481090Y-85624200D01*
X158633910Y-85624200D01*
X158783793Y-85654013D01*
X158783793Y-85654013D01*
G37*
G36*
X104411091Y-84621503D02*
X104611427Y-84704485D01*
X104791716Y-84824950D01*
X104945050Y-84978284D01*
X105065515Y-85158573D01*
X105065516Y-85158576D01*
X105148497Y-85358909D01*
X105190800Y-85571581D01*
X105190800Y-85788419D01*
X105189014Y-85797397D01*
X105148497Y-86001091D01*
X105065515Y-86201427D01*
X104945050Y-86381716D01*
X104791716Y-86535050D01*
X104611427Y-86655515D01*
X104576568Y-86669954D01*
X104411091Y-86738497D01*
X104198419Y-86780800D01*
X103981581Y-86780800D01*
X103768909Y-86738497D01*
X103603432Y-86669954D01*
X103568573Y-86655515D01*
X103388284Y-86535050D01*
X103234950Y-86381716D01*
X103114485Y-86201427D01*
X103031503Y-86001091D01*
X102990986Y-85797397D01*
X102989200Y-85788419D01*
X102989200Y-85571581D01*
X103031503Y-85358909D01*
X103114484Y-85158576D01*
X103114485Y-85158573D01*
X103234950Y-84978284D01*
X103388284Y-84824950D01*
X103568573Y-84704485D01*
X103768909Y-84621503D01*
X103981581Y-84579200D01*
X104198419Y-84579200D01*
X104411091Y-84621503D01*
X104411091Y-84621503D01*
G37*
G36*
X161735079Y-84758617D02*
X161857756Y-84795830D01*
X161970814Y-84856261D01*
X162069912Y-84937588D01*
X162151239Y-85036686D01*
X162211670Y-85149744D01*
X162248883Y-85272421D01*
X162261448Y-85400000D01*
X162248883Y-85527579D01*
X162211670Y-85650256D01*
X162151239Y-85763314D01*
X162069912Y-85862412D01*
X161970814Y-85943739D01*
X161857756Y-86004170D01*
X161735079Y-86041383D01*
X161639465Y-86050800D01*
X160875535Y-86050800D01*
X160779921Y-86041383D01*
X160657244Y-86004170D01*
X160544186Y-85943739D01*
X160445088Y-85862412D01*
X160363761Y-85763314D01*
X160303330Y-85650256D01*
X160266117Y-85527579D01*
X160253552Y-85400000D01*
X160266117Y-85272421D01*
X160303330Y-85149744D01*
X160363761Y-85036686D01*
X160445088Y-84937588D01*
X160544186Y-84856261D01*
X160657244Y-84795830D01*
X160779921Y-84758617D01*
X160875535Y-84749200D01*
X161639465Y-84749200D01*
X161735079Y-84758617D01*
X161735079Y-84758617D01*
G37*
G36*
X152488362Y-82923545D02*
X152576588Y-82932234D01*
X152746389Y-82983743D01*
X152746392Y-82983745D01*
X152746393Y-82983745D01*
X152902874Y-83067385D01*
X153040043Y-83179957D01*
X153152615Y-83317126D01*
X153236255Y-83473607D01*
X153236257Y-83473611D01*
X153287766Y-83643412D01*
X153305158Y-83820000D01*
X153287766Y-83996588D01*
X153236257Y-84166389D01*
X153236255Y-84166392D01*
X153236255Y-84166393D01*
X153152615Y-84322874D01*
X153040043Y-84460043D01*
X152902874Y-84572615D01*
X152746393Y-84656255D01*
X152746389Y-84656257D01*
X152576588Y-84707766D01*
X152488362Y-84716455D01*
X152444250Y-84720800D01*
X152355750Y-84720800D01*
X152311638Y-84716455D01*
X152223412Y-84707766D01*
X152053611Y-84656257D01*
X152053607Y-84656255D01*
X151897126Y-84572615D01*
X151759957Y-84460043D01*
X151647385Y-84322874D01*
X151563745Y-84166393D01*
X151563745Y-84166392D01*
X151563743Y-84166389D01*
X151512234Y-83996588D01*
X151494842Y-83820000D01*
X151512234Y-83643412D01*
X151563743Y-83473611D01*
X151563745Y-83473607D01*
X151647385Y-83317126D01*
X151759957Y-83179957D01*
X151897126Y-83067385D01*
X152053607Y-82983745D01*
X152053608Y-82983745D01*
X152053611Y-82983743D01*
X152223412Y-82932234D01*
X152311638Y-82923545D01*
X152355750Y-82919200D01*
X152444250Y-82919200D01*
X152488362Y-82923545D01*
X152488362Y-82923545D01*
G37*
G36*
X149948362Y-82923545D02*
X150036588Y-82932234D01*
X150206389Y-82983743D01*
X150206392Y-82983745D01*
X150206393Y-82983745D01*
X150362874Y-83067385D01*
X150500043Y-83179957D01*
X150612615Y-83317126D01*
X150696255Y-83473607D01*
X150696257Y-83473611D01*
X150747766Y-83643412D01*
X150765158Y-83820000D01*
X150747766Y-83996588D01*
X150696257Y-84166389D01*
X150696255Y-84166392D01*
X150696255Y-84166393D01*
X150612615Y-84322874D01*
X150500043Y-84460043D01*
X150362874Y-84572615D01*
X150206393Y-84656255D01*
X150206389Y-84656257D01*
X150036588Y-84707766D01*
X149948362Y-84716455D01*
X149904250Y-84720800D01*
X149815750Y-84720800D01*
X149771638Y-84716455D01*
X149683412Y-84707766D01*
X149513611Y-84656257D01*
X149513607Y-84656255D01*
X149357126Y-84572615D01*
X149219957Y-84460043D01*
X149107385Y-84322874D01*
X149023745Y-84166393D01*
X149023745Y-84166392D01*
X149023743Y-84166389D01*
X148972234Y-83996588D01*
X148954842Y-83820000D01*
X148972234Y-83643412D01*
X149023743Y-83473611D01*
X149023745Y-83473607D01*
X149107385Y-83317126D01*
X149219957Y-83179957D01*
X149357126Y-83067385D01*
X149513607Y-82983745D01*
X149513608Y-82983745D01*
X149513611Y-82983743D01*
X149683412Y-82932234D01*
X149771638Y-82923545D01*
X149815750Y-82919200D01*
X149904250Y-82919200D01*
X149948362Y-82923545D01*
X149948362Y-82923545D01*
G37*
G36*
X104416194Y-81432411D02*
X104433951Y-81435943D01*
X104634287Y-81518925D01*
X104814576Y-81639390D01*
X104967910Y-81792724D01*
X105088375Y-81973013D01*
X105171357Y-82173349D01*
X105213660Y-82386022D01*
X105213660Y-82602858D01*
X105171357Y-82815531D01*
X105088375Y-83015867D01*
X104967910Y-83196156D01*
X104814576Y-83349490D01*
X104634287Y-83469955D01*
X104433951Y-83552937D01*
X104221279Y-83595240D01*
X104004441Y-83595240D01*
X103791769Y-83552937D01*
X103591433Y-83469955D01*
X103411144Y-83349490D01*
X103257810Y-83196156D01*
X103137345Y-83015867D01*
X103054363Y-82815531D01*
X103012060Y-82602858D01*
X103012060Y-82386022D01*
X103054363Y-82173349D01*
X103137345Y-81973013D01*
X103257810Y-81792724D01*
X103411144Y-81639390D01*
X103591433Y-81518925D01*
X103791769Y-81435943D01*
X103809526Y-81432411D01*
X104004441Y-81393640D01*
X104221279Y-81393640D01*
X104416194Y-81432411D01*
X104416194Y-81432411D01*
G37*
G36*
X149948362Y-80383545D02*
X150036588Y-80392234D01*
X150206389Y-80443743D01*
X150206392Y-80443745D01*
X150206393Y-80443745D01*
X150362874Y-80527385D01*
X150500043Y-80639957D01*
X150612615Y-80777126D01*
X150696255Y-80933607D01*
X150696257Y-80933611D01*
X150747766Y-81103412D01*
X150765158Y-81280000D01*
X150747766Y-81456588D01*
X150696257Y-81626389D01*
X150696255Y-81626392D01*
X150696255Y-81626393D01*
X150612615Y-81782874D01*
X150500043Y-81920043D01*
X150362874Y-82032615D01*
X150206393Y-82116255D01*
X150206389Y-82116257D01*
X150036588Y-82167766D01*
X149948362Y-82176455D01*
X149904250Y-82180800D01*
X149815750Y-82180800D01*
X149771638Y-82176455D01*
X149683412Y-82167766D01*
X149513611Y-82116257D01*
X149513607Y-82116255D01*
X149357126Y-82032615D01*
X149219957Y-81920043D01*
X149107385Y-81782874D01*
X149023745Y-81626393D01*
X149023745Y-81626392D01*
X149023743Y-81626389D01*
X148972234Y-81456588D01*
X148954842Y-81280000D01*
X148972234Y-81103412D01*
X149023743Y-80933611D01*
X149023745Y-80933607D01*
X149107385Y-80777126D01*
X149219957Y-80639957D01*
X149357126Y-80527385D01*
X149513607Y-80443745D01*
X149513608Y-80443745D01*
X149513611Y-80443743D01*
X149683412Y-80392234D01*
X149771638Y-80383545D01*
X149815750Y-80379200D01*
X149904250Y-80379200D01*
X149948362Y-80383545D01*
X149948362Y-80383545D01*
G37*
G36*
X152488362Y-80383545D02*
X152576588Y-80392234D01*
X152746389Y-80443743D01*
X152746392Y-80443745D01*
X152746393Y-80443745D01*
X152902874Y-80527385D01*
X153040043Y-80639957D01*
X153152615Y-80777126D01*
X153236255Y-80933607D01*
X153236257Y-80933611D01*
X153287766Y-81103412D01*
X153305158Y-81280000D01*
X153287766Y-81456588D01*
X153236257Y-81626389D01*
X153236255Y-81626392D01*
X153236255Y-81626393D01*
X153152615Y-81782874D01*
X153040043Y-81920043D01*
X152902874Y-82032615D01*
X152746393Y-82116255D01*
X152746389Y-82116257D01*
X152576588Y-82167766D01*
X152488362Y-82176455D01*
X152444250Y-82180800D01*
X152355750Y-82180800D01*
X152311638Y-82176455D01*
X152223412Y-82167766D01*
X152053611Y-82116257D01*
X152053607Y-82116255D01*
X151897126Y-82032615D01*
X151759957Y-81920043D01*
X151647385Y-81782874D01*
X151563745Y-81626393D01*
X151563745Y-81626392D01*
X151563743Y-81626389D01*
X151512234Y-81456588D01*
X151494842Y-81280000D01*
X151512234Y-81103412D01*
X151563743Y-80933611D01*
X151563745Y-80933607D01*
X151647385Y-80777126D01*
X151759957Y-80639957D01*
X151897126Y-80527385D01*
X152053607Y-80443745D01*
X152053608Y-80443745D01*
X152053611Y-80443743D01*
X152223412Y-80392234D01*
X152311638Y-80383545D01*
X152355750Y-80379200D01*
X152444250Y-80379200D01*
X152488362Y-80383545D01*
X152488362Y-80383545D01*
G37*
G36*
X101892906Y-80354218D02*
X102061391Y-80424006D01*
X102213023Y-80525324D01*
X102341976Y-80654277D01*
X102443294Y-80805909D01*
X102513082Y-80974394D01*
X102548660Y-81153257D01*
X102548660Y-81335623D01*
X102513082Y-81514486D01*
X102443294Y-81682971D01*
X102341976Y-81834603D01*
X102213023Y-81963556D01*
X102061391Y-82064874D01*
X101892906Y-82134662D01*
X101714043Y-82170240D01*
X101531677Y-82170240D01*
X101352814Y-82134662D01*
X101184329Y-82064874D01*
X101032697Y-81963556D01*
X100903744Y-81834603D01*
X100802426Y-81682971D01*
X100732638Y-81514486D01*
X100697060Y-81335623D01*
X100697060Y-81153257D01*
X100732638Y-80974394D01*
X100802426Y-80805909D01*
X100903744Y-80654277D01*
X101032697Y-80525324D01*
X101184329Y-80424006D01*
X101352814Y-80354218D01*
X101531677Y-80318640D01*
X101714043Y-80318640D01*
X101892906Y-80354218D01*
X101892906Y-80354218D01*
G37*
G36*
X161735079Y-80328617D02*
X161857756Y-80365830D01*
X161970814Y-80426261D01*
X162069912Y-80507588D01*
X162151239Y-80606686D01*
X162211670Y-80719744D01*
X162248883Y-80842421D01*
X162261448Y-80970000D01*
X162248883Y-81097579D01*
X162211670Y-81220256D01*
X162151239Y-81333314D01*
X162069912Y-81432412D01*
X161970814Y-81513739D01*
X161857756Y-81574170D01*
X161735079Y-81611383D01*
X161639465Y-81620800D01*
X160875535Y-81620800D01*
X160779921Y-81611383D01*
X160657244Y-81574170D01*
X160544186Y-81513739D01*
X160445088Y-81432412D01*
X160363761Y-81333314D01*
X160303330Y-81220256D01*
X160266117Y-81097579D01*
X160253552Y-80970000D01*
X160266117Y-80842421D01*
X160303330Y-80719744D01*
X160363761Y-80606686D01*
X160445088Y-80507588D01*
X160544186Y-80426261D01*
X160657244Y-80365830D01*
X160779921Y-80328617D01*
X160875535Y-80319200D01*
X161639465Y-80319200D01*
X161735079Y-80328617D01*
X161735079Y-80328617D01*
G37*
G36*
X158783793Y-79224013D02*
X158924979Y-79282495D01*
X159052044Y-79367397D01*
X159160103Y-79475456D01*
X159245005Y-79602521D01*
X159303487Y-79743707D01*
X159333300Y-79893590D01*
X159333300Y-80046410D01*
X159303487Y-80196293D01*
X159245005Y-80337479D01*
X159160103Y-80464544D01*
X159052044Y-80572603D01*
X158924979Y-80657505D01*
X158783793Y-80715987D01*
X158633910Y-80745800D01*
X158481090Y-80745800D01*
X158331207Y-80715987D01*
X158190021Y-80657505D01*
X158062956Y-80572603D01*
X157954897Y-80464544D01*
X157869995Y-80337479D01*
X157811513Y-80196293D01*
X157781700Y-80046410D01*
X157781700Y-79893590D01*
X157811513Y-79743707D01*
X157869995Y-79602521D01*
X157954897Y-79475456D01*
X158062956Y-79367397D01*
X158190021Y-79282495D01*
X158331207Y-79224013D01*
X158481090Y-79194200D01*
X158633910Y-79194200D01*
X158783793Y-79224013D01*
X158783793Y-79224013D01*
G37*
G36*
X152488362Y-77843545D02*
X152576588Y-77852234D01*
X152746389Y-77903743D01*
X152746392Y-77903745D01*
X152746393Y-77903745D01*
X152902874Y-77987385D01*
X153040043Y-78099957D01*
X153152615Y-78237126D01*
X153236255Y-78393607D01*
X153236257Y-78393611D01*
X153287766Y-78563412D01*
X153305158Y-78740000D01*
X153287766Y-78916588D01*
X153236257Y-79086389D01*
X153236255Y-79086392D01*
X153236255Y-79086393D01*
X153152615Y-79242874D01*
X153040043Y-79380043D01*
X152902874Y-79492615D01*
X152746393Y-79576255D01*
X152746389Y-79576257D01*
X152576588Y-79627766D01*
X152488362Y-79636455D01*
X152444250Y-79640800D01*
X152355750Y-79640800D01*
X152311638Y-79636455D01*
X152223412Y-79627766D01*
X152053611Y-79576257D01*
X152053607Y-79576255D01*
X151897126Y-79492615D01*
X151759957Y-79380043D01*
X151647385Y-79242874D01*
X151563745Y-79086393D01*
X151563745Y-79086392D01*
X151563743Y-79086389D01*
X151512234Y-78916588D01*
X151494842Y-78740000D01*
X151512234Y-78563412D01*
X151563743Y-78393611D01*
X151563745Y-78393607D01*
X151647385Y-78237126D01*
X151759957Y-78099957D01*
X151897126Y-77987385D01*
X152053607Y-77903745D01*
X152053608Y-77903745D01*
X152053611Y-77903743D01*
X152223412Y-77852234D01*
X152311638Y-77843545D01*
X152355750Y-77839200D01*
X152444250Y-77839200D01*
X152488362Y-77843545D01*
X152488362Y-77843545D01*
G37*
G36*
X149948362Y-77843545D02*
X150036588Y-77852234D01*
X150206389Y-77903743D01*
X150206392Y-77903745D01*
X150206393Y-77903745D01*
X150362874Y-77987385D01*
X150500043Y-78099957D01*
X150612615Y-78237126D01*
X150696255Y-78393607D01*
X150696257Y-78393611D01*
X150747766Y-78563412D01*
X150765158Y-78740000D01*
X150747766Y-78916588D01*
X150696257Y-79086389D01*
X150696255Y-79086392D01*
X150696255Y-79086393D01*
X150612615Y-79242874D01*
X150500043Y-79380043D01*
X150362874Y-79492615D01*
X150206393Y-79576255D01*
X150206389Y-79576257D01*
X150036588Y-79627766D01*
X149948362Y-79636455D01*
X149904250Y-79640800D01*
X149815750Y-79640800D01*
X149771638Y-79636455D01*
X149683412Y-79627766D01*
X149513611Y-79576257D01*
X149513607Y-79576255D01*
X149357126Y-79492615D01*
X149219957Y-79380043D01*
X149107385Y-79242874D01*
X149023745Y-79086393D01*
X149023745Y-79086392D01*
X149023743Y-79086389D01*
X148972234Y-78916588D01*
X148954842Y-78740000D01*
X148972234Y-78563412D01*
X149023743Y-78393611D01*
X149023745Y-78393607D01*
X149107385Y-78237126D01*
X149219957Y-78099957D01*
X149357126Y-77987385D01*
X149513607Y-77903745D01*
X149513608Y-77903745D01*
X149513611Y-77903743D01*
X149683412Y-77852234D01*
X149771638Y-77843545D01*
X149815750Y-77839200D01*
X149904250Y-77839200D01*
X149948362Y-77843545D01*
X149948362Y-77843545D01*
G37*
G36*
X101892906Y-75854218D02*
X102061391Y-75924006D01*
X102213023Y-76025324D01*
X102341976Y-76154277D01*
X102443294Y-76305909D01*
X102513082Y-76474394D01*
X102548660Y-76653257D01*
X102548660Y-76835623D01*
X102513082Y-77014486D01*
X102443294Y-77182971D01*
X102341976Y-77334603D01*
X102213023Y-77463556D01*
X102061391Y-77564874D01*
X101892906Y-77634662D01*
X101714043Y-77670240D01*
X101531677Y-77670240D01*
X101352814Y-77634662D01*
X101184329Y-77564874D01*
X101032697Y-77463556D01*
X100903744Y-77334603D01*
X100802426Y-77182971D01*
X100732638Y-77014486D01*
X100697060Y-76835623D01*
X100697060Y-76653257D01*
X100732638Y-76474394D01*
X100802426Y-76305909D01*
X100903744Y-76154277D01*
X101032697Y-76025324D01*
X101184329Y-75924006D01*
X101352814Y-75854218D01*
X101531677Y-75818640D01*
X101714043Y-75818640D01*
X101892906Y-75854218D01*
X101892906Y-75854218D01*
G37*
G36*
X152488362Y-75303545D02*
X152576588Y-75312234D01*
X152746389Y-75363743D01*
X152746392Y-75363745D01*
X152746393Y-75363745D01*
X152902874Y-75447385D01*
X153040043Y-75559957D01*
X153152615Y-75697126D01*
X153210558Y-75805531D01*
X153236257Y-75853611D01*
X153287766Y-76023412D01*
X153305158Y-76200000D01*
X153287766Y-76376588D01*
X153236257Y-76546389D01*
X153236255Y-76546392D01*
X153236255Y-76546393D01*
X153152615Y-76702874D01*
X153040043Y-76840043D01*
X152902874Y-76952615D01*
X152787120Y-77014486D01*
X152746389Y-77036257D01*
X152576588Y-77087766D01*
X152488362Y-77096455D01*
X152444250Y-77100800D01*
X152355750Y-77100800D01*
X152311638Y-77096455D01*
X152223412Y-77087766D01*
X152053611Y-77036257D01*
X152012880Y-77014486D01*
X151897126Y-76952615D01*
X151759957Y-76840043D01*
X151647385Y-76702874D01*
X151563745Y-76546393D01*
X151563745Y-76546392D01*
X151563743Y-76546389D01*
X151512234Y-76376588D01*
X151494842Y-76200000D01*
X151512234Y-76023412D01*
X151563743Y-75853611D01*
X151589442Y-75805531D01*
X151647385Y-75697126D01*
X151759957Y-75559957D01*
X151897126Y-75447385D01*
X152053607Y-75363745D01*
X152053608Y-75363745D01*
X152053611Y-75363743D01*
X152223412Y-75312234D01*
X152311638Y-75303545D01*
X152355750Y-75299200D01*
X152444250Y-75299200D01*
X152488362Y-75303545D01*
X152488362Y-75303545D01*
G37*
G36*
X149948362Y-75303545D02*
X150036588Y-75312234D01*
X150206389Y-75363743D01*
X150206392Y-75363745D01*
X150206393Y-75363745D01*
X150362874Y-75447385D01*
X150500043Y-75559957D01*
X150612615Y-75697126D01*
X150670558Y-75805531D01*
X150696257Y-75853611D01*
X150747766Y-76023412D01*
X150765158Y-76200000D01*
X150747766Y-76376588D01*
X150696257Y-76546389D01*
X150696255Y-76546392D01*
X150696255Y-76546393D01*
X150612615Y-76702874D01*
X150500043Y-76840043D01*
X150362874Y-76952615D01*
X150247120Y-77014486D01*
X150206389Y-77036257D01*
X150036588Y-77087766D01*
X149948362Y-77096455D01*
X149904250Y-77100800D01*
X149815750Y-77100800D01*
X149771638Y-77096455D01*
X149683412Y-77087766D01*
X149513611Y-77036257D01*
X149472880Y-77014486D01*
X149357126Y-76952615D01*
X149219957Y-76840043D01*
X149107385Y-76702874D01*
X149023745Y-76546393D01*
X149023745Y-76546392D01*
X149023743Y-76546389D01*
X148972234Y-76376588D01*
X148954842Y-76200000D01*
X148972234Y-76023412D01*
X149023743Y-75853611D01*
X149049442Y-75805531D01*
X149107385Y-75697126D01*
X149219957Y-75559957D01*
X149357126Y-75447385D01*
X149513607Y-75363745D01*
X149513608Y-75363745D01*
X149513611Y-75363743D01*
X149683412Y-75312234D01*
X149771638Y-75303545D01*
X149815750Y-75299200D01*
X149904250Y-75299200D01*
X149948362Y-75303545D01*
X149948362Y-75303545D01*
G37*
G36*
X104366926Y-74412611D02*
X104433951Y-74425943D01*
X104634287Y-74508925D01*
X104814576Y-74629390D01*
X104967910Y-74782724D01*
X105088375Y-74963013D01*
X105088376Y-74963016D01*
X105171357Y-75163349D01*
X105205994Y-75337479D01*
X105213660Y-75376022D01*
X105213660Y-75592858D01*
X105171357Y-75805531D01*
X105088375Y-76005867D01*
X104967910Y-76186156D01*
X104814576Y-76339490D01*
X104634287Y-76459955D01*
X104599428Y-76474394D01*
X104433951Y-76542937D01*
X104221279Y-76585240D01*
X104004441Y-76585240D01*
X103791769Y-76542937D01*
X103626292Y-76474394D01*
X103591433Y-76459955D01*
X103411144Y-76339490D01*
X103257810Y-76186156D01*
X103137345Y-76005867D01*
X103054363Y-75805531D01*
X103012060Y-75592858D01*
X103012060Y-75376022D01*
X103019727Y-75337479D01*
X103054363Y-75163349D01*
X103137344Y-74963016D01*
X103137345Y-74963013D01*
X103257810Y-74782724D01*
X103411144Y-74629390D01*
X103591433Y-74508925D01*
X103791769Y-74425943D01*
X103858794Y-74412611D01*
X104004441Y-74383640D01*
X104221279Y-74383640D01*
X104366926Y-74412611D01*
X104366926Y-74412611D01*
G37*
G36*
X158783793Y-74224013D02*
X158924979Y-74282495D01*
X159052044Y-74367397D01*
X159160103Y-74475456D01*
X159245005Y-74602521D01*
X159303487Y-74743707D01*
X159333300Y-74893590D01*
X159333300Y-75046410D01*
X159303487Y-75196293D01*
X159245005Y-75337479D01*
X159160103Y-75464544D01*
X159052044Y-75572603D01*
X158924979Y-75657505D01*
X158783793Y-75715987D01*
X158633910Y-75745800D01*
X158481090Y-75745800D01*
X158331207Y-75715987D01*
X158190021Y-75657505D01*
X158062956Y-75572603D01*
X157954897Y-75464544D01*
X157869995Y-75337479D01*
X157811513Y-75196293D01*
X157781700Y-75046410D01*
X157781700Y-74893590D01*
X157811513Y-74743707D01*
X157869995Y-74602521D01*
X157954897Y-74475456D01*
X158062956Y-74367397D01*
X158190021Y-74282495D01*
X158331207Y-74224013D01*
X158481090Y-74194200D01*
X158633910Y-74194200D01*
X158783793Y-74224013D01*
X158783793Y-74224013D01*
G37*
G36*
X161735079Y-73328617D02*
X161857756Y-73365830D01*
X161970814Y-73426261D01*
X162069912Y-73507588D01*
X162151239Y-73606686D01*
X162211670Y-73719744D01*
X162248883Y-73842421D01*
X162261448Y-73970000D01*
X162248883Y-74097579D01*
X162211670Y-74220256D01*
X162151239Y-74333314D01*
X162069912Y-74432412D01*
X161970814Y-74513739D01*
X161857756Y-74574170D01*
X161735079Y-74611383D01*
X161639465Y-74620800D01*
X160875535Y-74620800D01*
X160779921Y-74611383D01*
X160657244Y-74574170D01*
X160544186Y-74513739D01*
X160445088Y-74432412D01*
X160363761Y-74333314D01*
X160303330Y-74220256D01*
X160266117Y-74097579D01*
X160253552Y-73970000D01*
X160266117Y-73842421D01*
X160303330Y-73719744D01*
X160363761Y-73606686D01*
X160445088Y-73507588D01*
X160544186Y-73426261D01*
X160657244Y-73365830D01*
X160779921Y-73328617D01*
X160875535Y-73319200D01*
X161639465Y-73319200D01*
X161735079Y-73328617D01*
X161735079Y-73328617D01*
G37*
G36*
X150760800Y-74560800D02*
X148959200Y-74560800D01*
X148959200Y-72759200D01*
X150760800Y-72759200D01*
X150760800Y-74560800D01*
X150760800Y-74560800D01*
G37*
G36*
X152488362Y-72763545D02*
X152576588Y-72772234D01*
X152746389Y-72823743D01*
X152746392Y-72823745D01*
X152746393Y-72823745D01*
X152902874Y-72907385D01*
X153040043Y-73019957D01*
X153152615Y-73157126D01*
X153236255Y-73313607D01*
X153236257Y-73313611D01*
X153287766Y-73483412D01*
X153305158Y-73660000D01*
X153287766Y-73836588D01*
X153236257Y-74006389D01*
X153236255Y-74006392D01*
X153236255Y-74006393D01*
X153152615Y-74162874D01*
X153040043Y-74300043D01*
X152902874Y-74412615D01*
X152746393Y-74496255D01*
X152746389Y-74496257D01*
X152576588Y-74547766D01*
X152488362Y-74556455D01*
X152444250Y-74560800D01*
X152355750Y-74560800D01*
X152311638Y-74556455D01*
X152223412Y-74547766D01*
X152053611Y-74496257D01*
X152053607Y-74496255D01*
X151897126Y-74412615D01*
X151759957Y-74300043D01*
X151647385Y-74162874D01*
X151563745Y-74006393D01*
X151563745Y-74006392D01*
X151563743Y-74006389D01*
X151512234Y-73836588D01*
X151494842Y-73660000D01*
X151512234Y-73483412D01*
X151563743Y-73313611D01*
X151563745Y-73313607D01*
X151647385Y-73157126D01*
X151759957Y-73019957D01*
X151897126Y-72907385D01*
X152053607Y-72823745D01*
X152053608Y-72823745D01*
X152053611Y-72823743D01*
X152223412Y-72772234D01*
X152311638Y-72763545D01*
X152355750Y-72759200D01*
X152444250Y-72759200D01*
X152488362Y-72763545D01*
X152488362Y-72763545D01*
G37*
G36*
X100840079Y-66358617D02*
X100962756Y-66395830D01*
X101075814Y-66456261D01*
X101174912Y-66537588D01*
X101256239Y-66636686D01*
X101316670Y-66749744D01*
X101353883Y-66872421D01*
X101366448Y-67000000D01*
X101353883Y-67127579D01*
X101316670Y-67250256D01*
X101256239Y-67363314D01*
X101174912Y-67462412D01*
X101075814Y-67543739D01*
X100962756Y-67604170D01*
X100840079Y-67641383D01*
X100744465Y-67650800D01*
X99980535Y-67650800D01*
X99884921Y-67641383D01*
X99762244Y-67604170D01*
X99649186Y-67543739D01*
X99550088Y-67462412D01*
X99468761Y-67363314D01*
X99408330Y-67250256D01*
X99371117Y-67127579D01*
X99358552Y-67000000D01*
X99371117Y-66872421D01*
X99408330Y-66749744D01*
X99468761Y-66636686D01*
X99550088Y-66537588D01*
X99649186Y-66456261D01*
X99762244Y-66395830D01*
X99884921Y-66358617D01*
X99980535Y-66349200D01*
X100744465Y-66349200D01*
X100840079Y-66358617D01*
X100840079Y-66358617D01*
G37*
G36*
X103288793Y-65254013D02*
X103429979Y-65312495D01*
X103557044Y-65397397D01*
X103665103Y-65505456D01*
X103750005Y-65632521D01*
X103808487Y-65773707D01*
X103838300Y-65923590D01*
X103838300Y-66076410D01*
X103808487Y-66226293D01*
X103750005Y-66367479D01*
X103665103Y-66494544D01*
X103557044Y-66602603D01*
X103429979Y-66687505D01*
X103288793Y-66745987D01*
X103138910Y-66775800D01*
X102986090Y-66775800D01*
X102836207Y-66745987D01*
X102695021Y-66687505D01*
X102567956Y-66602603D01*
X102459897Y-66494544D01*
X102374995Y-66367479D01*
X102316513Y-66226293D01*
X102286700Y-66076410D01*
X102286700Y-65923590D01*
X102316513Y-65773707D01*
X102374995Y-65632521D01*
X102459897Y-65505456D01*
X102567956Y-65397397D01*
X102695021Y-65312495D01*
X102836207Y-65254013D01*
X102986090Y-65224200D01*
X103138910Y-65224200D01*
X103288793Y-65254013D01*
X103288793Y-65254013D01*
G37*
G36*
X103288793Y-60254013D02*
X103429979Y-60312495D01*
X103557044Y-60397397D01*
X103665103Y-60505456D01*
X103750005Y-60632521D01*
X103808487Y-60773707D01*
X103838300Y-60923590D01*
X103838300Y-61076410D01*
X103808487Y-61226293D01*
X103750005Y-61367479D01*
X103665103Y-61494544D01*
X103557044Y-61602603D01*
X103429979Y-61687505D01*
X103288793Y-61745987D01*
X103138910Y-61775800D01*
X102986090Y-61775800D01*
X102836207Y-61745987D01*
X102695021Y-61687505D01*
X102567956Y-61602603D01*
X102459897Y-61494544D01*
X102374995Y-61367479D01*
X102316513Y-61226293D01*
X102286700Y-61076410D01*
X102286700Y-60923590D01*
X102316513Y-60773707D01*
X102374995Y-60632521D01*
X102459897Y-60505456D01*
X102567956Y-60397397D01*
X102695021Y-60312495D01*
X102836207Y-60254013D01*
X102986090Y-60224200D01*
X103138910Y-60224200D01*
X103288793Y-60254013D01*
X103288793Y-60254013D01*
G37*
G36*
X100840079Y-59358617D02*
X100962756Y-59395830D01*
X101075814Y-59456261D01*
X101174912Y-59537588D01*
X101256239Y-59636686D01*
X101316670Y-59749744D01*
X101353883Y-59872421D01*
X101366448Y-60000000D01*
X101353883Y-60127579D01*
X101316670Y-60250256D01*
X101256239Y-60363314D01*
X101174912Y-60462412D01*
X101075814Y-60543739D01*
X100962756Y-60604170D01*
X100840079Y-60641383D01*
X100744465Y-60650800D01*
X99980535Y-60650800D01*
X99884921Y-60641383D01*
X99762244Y-60604170D01*
X99649186Y-60543739D01*
X99550088Y-60462412D01*
X99468761Y-60363314D01*
X99408330Y-60250256D01*
X99371117Y-60127579D01*
X99358552Y-60000000D01*
X99371117Y-59872421D01*
X99408330Y-59749744D01*
X99468761Y-59636686D01*
X99550088Y-59537588D01*
X99649186Y-59456261D01*
X99762244Y-59395830D01*
X99884921Y-59358617D01*
X99980535Y-59349200D01*
X100744465Y-59349200D01*
X100840079Y-59358617D01*
X100840079Y-59358617D01*
G37*
G36*
X157568362Y-52443545D02*
X157656588Y-52452234D01*
X157826389Y-52503743D01*
X157826392Y-52503745D01*
X157826393Y-52503745D01*
X157982874Y-52587385D01*
X158120043Y-52699957D01*
X158232615Y-52837126D01*
X158316255Y-52993607D01*
X158316257Y-52993611D01*
X158367766Y-53163412D01*
X158385158Y-53340000D01*
X158367766Y-53516588D01*
X158316257Y-53686389D01*
X158316255Y-53686392D01*
X158316255Y-53686393D01*
X158232615Y-53842874D01*
X158120043Y-53980043D01*
X157982874Y-54092615D01*
X157826393Y-54176255D01*
X157826389Y-54176257D01*
X157656588Y-54227766D01*
X157568362Y-54236455D01*
X157524250Y-54240800D01*
X157435750Y-54240800D01*
X157391638Y-54236455D01*
X157303412Y-54227766D01*
X157133611Y-54176257D01*
X157133607Y-54176255D01*
X156977126Y-54092615D01*
X156839957Y-53980043D01*
X156727385Y-53842874D01*
X156643745Y-53686393D01*
X156643745Y-53686392D01*
X156643743Y-53686389D01*
X156592234Y-53516588D01*
X156574842Y-53340000D01*
X156592234Y-53163412D01*
X156643743Y-52993611D01*
X156643745Y-52993607D01*
X156727385Y-52837126D01*
X156839957Y-52699957D01*
X156977126Y-52587385D01*
X157133607Y-52503745D01*
X157133608Y-52503745D01*
X157133611Y-52503743D01*
X157303412Y-52452234D01*
X157391638Y-52443545D01*
X157435750Y-52439200D01*
X157524250Y-52439200D01*
X157568362Y-52443545D01*
X157568362Y-52443545D01*
G37*
G36*
X155840800Y-54240800D02*
X154039200Y-54240800D01*
X154039200Y-52439200D01*
X155840800Y-52439200D01*
X155840800Y-54240800D01*
X155840800Y-54240800D01*
G37*
G36*
X110120800Y-51700800D02*
X108319200Y-51700800D01*
X108319200Y-49899200D01*
X110120800Y-49899200D01*
X110120800Y-51700800D01*
X110120800Y-51700800D01*
G37*
G36*
X111848362Y-49903545D02*
X111936588Y-49912234D01*
X112106389Y-49963743D01*
X112106392Y-49963745D01*
X112106393Y-49963745D01*
X112262874Y-50047385D01*
X112400043Y-50159957D01*
X112512615Y-50297126D01*
X112596255Y-50453607D01*
X112596257Y-50453611D01*
X112647766Y-50623412D01*
X112665158Y-50800000D01*
X112647766Y-50976588D01*
X112596257Y-51146389D01*
X112596255Y-51146392D01*
X112596255Y-51146393D01*
X112512615Y-51302874D01*
X112400043Y-51440043D01*
X112262874Y-51552615D01*
X112106393Y-51636255D01*
X112106389Y-51636257D01*
X111936588Y-51687766D01*
X111848362Y-51696455D01*
X111804250Y-51700800D01*
X111715750Y-51700800D01*
X111671638Y-51696455D01*
X111583412Y-51687766D01*
X111413611Y-51636257D01*
X111413607Y-51636255D01*
X111257126Y-51552615D01*
X111119957Y-51440043D01*
X111007385Y-51302874D01*
X110923745Y-51146393D01*
X110923745Y-51146392D01*
X110923743Y-51146389D01*
X110872234Y-50976588D01*
X110854842Y-50800000D01*
X110872234Y-50623412D01*
X110923743Y-50453611D01*
X110923745Y-50453607D01*
X111007385Y-50297126D01*
X111119957Y-50159957D01*
X111257126Y-50047385D01*
X111413607Y-49963745D01*
X111413608Y-49963745D01*
X111413611Y-49963743D01*
X111583412Y-49912234D01*
X111671638Y-49903545D01*
X111715750Y-49899200D01*
X111804250Y-49899200D01*
X111848362Y-49903545D01*
X111848362Y-49903545D01*
G37*
G36*
X114388362Y-49903545D02*
X114476588Y-49912234D01*
X114646389Y-49963743D01*
X114646392Y-49963745D01*
X114646393Y-49963745D01*
X114802874Y-50047385D01*
X114940043Y-50159957D01*
X115052615Y-50297126D01*
X115136255Y-50453607D01*
X115136257Y-50453611D01*
X115187766Y-50623412D01*
X115205158Y-50800000D01*
X115187766Y-50976588D01*
X115136257Y-51146389D01*
X115136255Y-51146392D01*
X115136255Y-51146393D01*
X115052615Y-51302874D01*
X114940043Y-51440043D01*
X114802874Y-51552615D01*
X114646393Y-51636255D01*
X114646389Y-51636257D01*
X114476588Y-51687766D01*
X114388362Y-51696455D01*
X114344250Y-51700800D01*
X114255750Y-51700800D01*
X114211638Y-51696455D01*
X114123412Y-51687766D01*
X113953611Y-51636257D01*
X113953607Y-51636255D01*
X113797126Y-51552615D01*
X113659957Y-51440043D01*
X113547385Y-51302874D01*
X113463745Y-51146393D01*
X113463745Y-51146392D01*
X113463743Y-51146389D01*
X113412234Y-50976588D01*
X113394842Y-50800000D01*
X113412234Y-50623412D01*
X113463743Y-50453611D01*
X113463745Y-50453607D01*
X113547385Y-50297126D01*
X113659957Y-50159957D01*
X113797126Y-50047385D01*
X113953607Y-49963745D01*
X113953608Y-49963745D01*
X113953611Y-49963743D01*
X114123412Y-49912234D01*
X114211638Y-49903545D01*
X114255750Y-49899200D01*
X114344250Y-49899200D01*
X114388362Y-49903545D01*
X114388362Y-49903545D01*
G37*
G36*
X116928362Y-49903545D02*
X117016588Y-49912234D01*
X117186389Y-49963743D01*
X117186392Y-49963745D01*
X117186393Y-49963745D01*
X117342874Y-50047385D01*
X117480043Y-50159957D01*
X117592615Y-50297126D01*
X117676255Y-50453607D01*
X117676257Y-50453611D01*
X117727766Y-50623412D01*
X117745158Y-50800000D01*
X117727766Y-50976588D01*
X117676257Y-51146389D01*
X117676255Y-51146392D01*
X117676255Y-51146393D01*
X117592615Y-51302874D01*
X117480043Y-51440043D01*
X117342874Y-51552615D01*
X117186393Y-51636255D01*
X117186389Y-51636257D01*
X117016588Y-51687766D01*
X116928362Y-51696455D01*
X116884250Y-51700800D01*
X116795750Y-51700800D01*
X116751638Y-51696455D01*
X116663412Y-51687766D01*
X116493611Y-51636257D01*
X116493607Y-51636255D01*
X116337126Y-51552615D01*
X116199957Y-51440043D01*
X116087385Y-51302874D01*
X116003745Y-51146393D01*
X116003745Y-51146392D01*
X116003743Y-51146389D01*
X115952234Y-50976588D01*
X115934842Y-50800000D01*
X115952234Y-50623412D01*
X116003743Y-50453611D01*
X116003745Y-50453607D01*
X116087385Y-50297126D01*
X116199957Y-50159957D01*
X116337126Y-50047385D01*
X116493607Y-49963745D01*
X116493608Y-49963745D01*
X116493611Y-49963743D01*
X116663412Y-49912234D01*
X116751638Y-49903545D01*
X116795750Y-49899200D01*
X116884250Y-49899200D01*
X116928362Y-49903545D01*
X116928362Y-49903545D01*
G37*
G36*
X147408362Y-49903545D02*
X147496588Y-49912234D01*
X147666389Y-49963743D01*
X147666392Y-49963745D01*
X147666393Y-49963745D01*
X147822874Y-50047385D01*
X147960043Y-50159957D01*
X148072615Y-50297126D01*
X148156255Y-50453607D01*
X148156257Y-50453611D01*
X148207766Y-50623412D01*
X148225158Y-50800000D01*
X148207766Y-50976588D01*
X148156257Y-51146389D01*
X148156255Y-51146392D01*
X148156255Y-51146393D01*
X148072615Y-51302874D01*
X147960043Y-51440043D01*
X147822874Y-51552615D01*
X147666393Y-51636255D01*
X147666389Y-51636257D01*
X147496588Y-51687766D01*
X147408362Y-51696455D01*
X147364250Y-51700800D01*
X147275750Y-51700800D01*
X147231638Y-51696455D01*
X147143412Y-51687766D01*
X146973611Y-51636257D01*
X146973607Y-51636255D01*
X146817126Y-51552615D01*
X146679957Y-51440043D01*
X146567385Y-51302874D01*
X146483745Y-51146393D01*
X146483745Y-51146392D01*
X146483743Y-51146389D01*
X146432234Y-50976588D01*
X146414842Y-50800000D01*
X146432234Y-50623412D01*
X146483743Y-50453611D01*
X146483745Y-50453607D01*
X146567385Y-50297126D01*
X146679957Y-50159957D01*
X146817126Y-50047385D01*
X146973607Y-49963745D01*
X146973608Y-49963745D01*
X146973611Y-49963743D01*
X147143412Y-49912234D01*
X147231638Y-49903545D01*
X147275750Y-49899200D01*
X147364250Y-49899200D01*
X147408362Y-49903545D01*
X147408362Y-49903545D01*
G37*
G36*
X142328362Y-49903545D02*
X142416588Y-49912234D01*
X142586389Y-49963743D01*
X142586392Y-49963745D01*
X142586393Y-49963745D01*
X142742874Y-50047385D01*
X142880043Y-50159957D01*
X142992615Y-50297126D01*
X143076255Y-50453607D01*
X143076257Y-50453611D01*
X143127766Y-50623412D01*
X143145158Y-50800000D01*
X143127766Y-50976588D01*
X143076257Y-51146389D01*
X143076255Y-51146392D01*
X143076255Y-51146393D01*
X142992615Y-51302874D01*
X142880043Y-51440043D01*
X142742874Y-51552615D01*
X142586393Y-51636255D01*
X142586389Y-51636257D01*
X142416588Y-51687766D01*
X142328362Y-51696455D01*
X142284250Y-51700800D01*
X142195750Y-51700800D01*
X142151638Y-51696455D01*
X142063412Y-51687766D01*
X141893611Y-51636257D01*
X141893607Y-51636255D01*
X141737126Y-51552615D01*
X141599957Y-51440043D01*
X141487385Y-51302874D01*
X141403745Y-51146393D01*
X141403745Y-51146392D01*
X141403743Y-51146389D01*
X141352234Y-50976588D01*
X141334842Y-50800000D01*
X141352234Y-50623412D01*
X141403743Y-50453611D01*
X141403745Y-50453607D01*
X141487385Y-50297126D01*
X141599957Y-50159957D01*
X141737126Y-50047385D01*
X141893607Y-49963745D01*
X141893608Y-49963745D01*
X141893611Y-49963743D01*
X142063412Y-49912234D01*
X142151638Y-49903545D01*
X142195750Y-49899200D01*
X142284250Y-49899200D01*
X142328362Y-49903545D01*
X142328362Y-49903545D01*
G37*
G36*
X139788362Y-49903545D02*
X139876588Y-49912234D01*
X140046389Y-49963743D01*
X140046392Y-49963745D01*
X140046393Y-49963745D01*
X140202874Y-50047385D01*
X140340043Y-50159957D01*
X140452615Y-50297126D01*
X140536255Y-50453607D01*
X140536257Y-50453611D01*
X140587766Y-50623412D01*
X140605158Y-50800000D01*
X140587766Y-50976588D01*
X140536257Y-51146389D01*
X140536255Y-51146392D01*
X140536255Y-51146393D01*
X140452615Y-51302874D01*
X140340043Y-51440043D01*
X140202874Y-51552615D01*
X140046393Y-51636255D01*
X140046389Y-51636257D01*
X139876588Y-51687766D01*
X139788362Y-51696455D01*
X139744250Y-51700800D01*
X139655750Y-51700800D01*
X139611638Y-51696455D01*
X139523412Y-51687766D01*
X139353611Y-51636257D01*
X139353607Y-51636255D01*
X139197126Y-51552615D01*
X139059957Y-51440043D01*
X138947385Y-51302874D01*
X138863745Y-51146393D01*
X138863745Y-51146392D01*
X138863743Y-51146389D01*
X138812234Y-50976588D01*
X138794842Y-50800000D01*
X138812234Y-50623412D01*
X138863743Y-50453611D01*
X138863745Y-50453607D01*
X138947385Y-50297126D01*
X139059957Y-50159957D01*
X139197126Y-50047385D01*
X139353607Y-49963745D01*
X139353608Y-49963745D01*
X139353611Y-49963743D01*
X139523412Y-49912234D01*
X139611638Y-49903545D01*
X139655750Y-49899200D01*
X139744250Y-49899200D01*
X139788362Y-49903545D01*
X139788362Y-49903545D01*
G37*
G36*
X134708362Y-49903545D02*
X134796588Y-49912234D01*
X134966389Y-49963743D01*
X134966392Y-49963745D01*
X134966393Y-49963745D01*
X135122874Y-50047385D01*
X135260043Y-50159957D01*
X135372615Y-50297126D01*
X135456255Y-50453607D01*
X135456257Y-50453611D01*
X135507766Y-50623412D01*
X135525158Y-50800000D01*
X135507766Y-50976588D01*
X135456257Y-51146389D01*
X135456255Y-51146392D01*
X135456255Y-51146393D01*
X135372615Y-51302874D01*
X135260043Y-51440043D01*
X135122874Y-51552615D01*
X134966393Y-51636255D01*
X134966389Y-51636257D01*
X134796588Y-51687766D01*
X134708362Y-51696455D01*
X134664250Y-51700800D01*
X134575750Y-51700800D01*
X134531638Y-51696455D01*
X134443412Y-51687766D01*
X134273611Y-51636257D01*
X134273607Y-51636255D01*
X134117126Y-51552615D01*
X133979957Y-51440043D01*
X133867385Y-51302874D01*
X133783745Y-51146393D01*
X133783745Y-51146392D01*
X133783743Y-51146389D01*
X133732234Y-50976588D01*
X133714842Y-50800000D01*
X133732234Y-50623412D01*
X133783743Y-50453611D01*
X133783745Y-50453607D01*
X133867385Y-50297126D01*
X133979957Y-50159957D01*
X134117126Y-50047385D01*
X134273607Y-49963745D01*
X134273608Y-49963745D01*
X134273611Y-49963743D01*
X134443412Y-49912234D01*
X134531638Y-49903545D01*
X134575750Y-49899200D01*
X134664250Y-49899200D01*
X134708362Y-49903545D01*
X134708362Y-49903545D01*
G37*
G36*
X132168362Y-49903545D02*
X132256588Y-49912234D01*
X132426389Y-49963743D01*
X132426392Y-49963745D01*
X132426393Y-49963745D01*
X132582874Y-50047385D01*
X132720043Y-50159957D01*
X132832615Y-50297126D01*
X132916255Y-50453607D01*
X132916257Y-50453611D01*
X132967766Y-50623412D01*
X132985158Y-50800000D01*
X132967766Y-50976588D01*
X132916257Y-51146389D01*
X132916255Y-51146392D01*
X132916255Y-51146393D01*
X132832615Y-51302874D01*
X132720043Y-51440043D01*
X132582874Y-51552615D01*
X132426393Y-51636255D01*
X132426389Y-51636257D01*
X132256588Y-51687766D01*
X132168362Y-51696455D01*
X132124250Y-51700800D01*
X132035750Y-51700800D01*
X131991638Y-51696455D01*
X131903412Y-51687766D01*
X131733611Y-51636257D01*
X131733607Y-51636255D01*
X131577126Y-51552615D01*
X131439957Y-51440043D01*
X131327385Y-51302874D01*
X131243745Y-51146393D01*
X131243745Y-51146392D01*
X131243743Y-51146389D01*
X131192234Y-50976588D01*
X131174842Y-50800000D01*
X131192234Y-50623412D01*
X131243743Y-50453611D01*
X131243745Y-50453607D01*
X131327385Y-50297126D01*
X131439957Y-50159957D01*
X131577126Y-50047385D01*
X131733607Y-49963745D01*
X131733608Y-49963745D01*
X131733611Y-49963743D01*
X131903412Y-49912234D01*
X131991638Y-49903545D01*
X132035750Y-49899200D01*
X132124250Y-49899200D01*
X132168362Y-49903545D01*
X132168362Y-49903545D01*
G37*
G36*
X119468362Y-49903545D02*
X119556588Y-49912234D01*
X119726389Y-49963743D01*
X119726392Y-49963745D01*
X119726393Y-49963745D01*
X119882874Y-50047385D01*
X120020043Y-50159957D01*
X120132615Y-50297126D01*
X120216255Y-50453607D01*
X120216257Y-50453611D01*
X120267766Y-50623412D01*
X120285158Y-50800000D01*
X120267766Y-50976588D01*
X120216257Y-51146389D01*
X120216255Y-51146392D01*
X120216255Y-51146393D01*
X120132615Y-51302874D01*
X120020043Y-51440043D01*
X119882874Y-51552615D01*
X119726393Y-51636255D01*
X119726389Y-51636257D01*
X119556588Y-51687766D01*
X119468362Y-51696455D01*
X119424250Y-51700800D01*
X119335750Y-51700800D01*
X119291638Y-51696455D01*
X119203412Y-51687766D01*
X119033611Y-51636257D01*
X119033607Y-51636255D01*
X118877126Y-51552615D01*
X118739957Y-51440043D01*
X118627385Y-51302874D01*
X118543745Y-51146393D01*
X118543745Y-51146392D01*
X118543743Y-51146389D01*
X118492234Y-50976588D01*
X118474842Y-50800000D01*
X118492234Y-50623412D01*
X118543743Y-50453611D01*
X118543745Y-50453607D01*
X118627385Y-50297126D01*
X118739957Y-50159957D01*
X118877126Y-50047385D01*
X119033607Y-49963745D01*
X119033608Y-49963745D01*
X119033611Y-49963743D01*
X119203412Y-49912234D01*
X119291638Y-49903545D01*
X119335750Y-49899200D01*
X119424250Y-49899200D01*
X119468362Y-49903545D01*
X119468362Y-49903545D01*
G37*
G36*
X129628362Y-49903545D02*
X129716588Y-49912234D01*
X129886389Y-49963743D01*
X129886392Y-49963745D01*
X129886393Y-49963745D01*
X130042874Y-50047385D01*
X130180043Y-50159957D01*
X130292615Y-50297126D01*
X130376255Y-50453607D01*
X130376257Y-50453611D01*
X130427766Y-50623412D01*
X130445158Y-50800000D01*
X130427766Y-50976588D01*
X130376257Y-51146389D01*
X130376255Y-51146392D01*
X130376255Y-51146393D01*
X130292615Y-51302874D01*
X130180043Y-51440043D01*
X130042874Y-51552615D01*
X129886393Y-51636255D01*
X129886389Y-51636257D01*
X129716588Y-51687766D01*
X129628362Y-51696455D01*
X129584250Y-51700800D01*
X129495750Y-51700800D01*
X129451638Y-51696455D01*
X129363412Y-51687766D01*
X129193611Y-51636257D01*
X129193607Y-51636255D01*
X129037126Y-51552615D01*
X128899957Y-51440043D01*
X128787385Y-51302874D01*
X128703745Y-51146393D01*
X128703745Y-51146392D01*
X128703743Y-51146389D01*
X128652234Y-50976588D01*
X128634842Y-50800000D01*
X128652234Y-50623412D01*
X128703743Y-50453611D01*
X128703745Y-50453607D01*
X128787385Y-50297126D01*
X128899957Y-50159957D01*
X129037126Y-50047385D01*
X129193607Y-49963745D01*
X129193608Y-49963745D01*
X129193611Y-49963743D01*
X129363412Y-49912234D01*
X129451638Y-49903545D01*
X129495750Y-49899200D01*
X129584250Y-49899200D01*
X129628362Y-49903545D01*
X129628362Y-49903545D01*
G37*
G36*
X127088362Y-49903545D02*
X127176588Y-49912234D01*
X127346389Y-49963743D01*
X127346392Y-49963745D01*
X127346393Y-49963745D01*
X127502874Y-50047385D01*
X127640043Y-50159957D01*
X127752615Y-50297126D01*
X127836255Y-50453607D01*
X127836257Y-50453611D01*
X127887766Y-50623412D01*
X127905158Y-50800000D01*
X127887766Y-50976588D01*
X127836257Y-51146389D01*
X127836255Y-51146392D01*
X127836255Y-51146393D01*
X127752615Y-51302874D01*
X127640043Y-51440043D01*
X127502874Y-51552615D01*
X127346393Y-51636255D01*
X127346389Y-51636257D01*
X127176588Y-51687766D01*
X127088362Y-51696455D01*
X127044250Y-51700800D01*
X126955750Y-51700800D01*
X126911638Y-51696455D01*
X126823412Y-51687766D01*
X126653611Y-51636257D01*
X126653607Y-51636255D01*
X126497126Y-51552615D01*
X126359957Y-51440043D01*
X126247385Y-51302874D01*
X126163745Y-51146393D01*
X126163745Y-51146392D01*
X126163743Y-51146389D01*
X126112234Y-50976588D01*
X126094842Y-50800000D01*
X126112234Y-50623412D01*
X126163743Y-50453611D01*
X126163745Y-50453607D01*
X126247385Y-50297126D01*
X126359957Y-50159957D01*
X126497126Y-50047385D01*
X126653607Y-49963745D01*
X126653608Y-49963745D01*
X126653611Y-49963743D01*
X126823412Y-49912234D01*
X126911638Y-49903545D01*
X126955750Y-49899200D01*
X127044250Y-49899200D01*
X127088362Y-49903545D01*
X127088362Y-49903545D01*
G37*
G36*
X124548362Y-49903545D02*
X124636588Y-49912234D01*
X124806389Y-49963743D01*
X124806392Y-49963745D01*
X124806393Y-49963745D01*
X124962874Y-50047385D01*
X125100043Y-50159957D01*
X125212615Y-50297126D01*
X125296255Y-50453607D01*
X125296257Y-50453611D01*
X125347766Y-50623412D01*
X125365158Y-50800000D01*
X125347766Y-50976588D01*
X125296257Y-51146389D01*
X125296255Y-51146392D01*
X125296255Y-51146393D01*
X125212615Y-51302874D01*
X125100043Y-51440043D01*
X124962874Y-51552615D01*
X124806393Y-51636255D01*
X124806389Y-51636257D01*
X124636588Y-51687766D01*
X124548362Y-51696455D01*
X124504250Y-51700800D01*
X124415750Y-51700800D01*
X124371638Y-51696455D01*
X124283412Y-51687766D01*
X124113611Y-51636257D01*
X124113607Y-51636255D01*
X123957126Y-51552615D01*
X123819957Y-51440043D01*
X123707385Y-51302874D01*
X123623745Y-51146393D01*
X123623745Y-51146392D01*
X123623743Y-51146389D01*
X123572234Y-50976588D01*
X123554842Y-50800000D01*
X123572234Y-50623412D01*
X123623743Y-50453611D01*
X123623745Y-50453607D01*
X123707385Y-50297126D01*
X123819957Y-50159957D01*
X123957126Y-50047385D01*
X124113607Y-49963745D01*
X124113608Y-49963745D01*
X124113611Y-49963743D01*
X124283412Y-49912234D01*
X124371638Y-49903545D01*
X124415750Y-49899200D01*
X124504250Y-49899200D01*
X124548362Y-49903545D01*
X124548362Y-49903545D01*
G37*
G36*
X122008362Y-49903545D02*
X122096588Y-49912234D01*
X122266389Y-49963743D01*
X122266392Y-49963745D01*
X122266393Y-49963745D01*
X122422874Y-50047385D01*
X122560043Y-50159957D01*
X122672615Y-50297126D01*
X122756255Y-50453607D01*
X122756257Y-50453611D01*
X122807766Y-50623412D01*
X122825158Y-50800000D01*
X122807766Y-50976588D01*
X122756257Y-51146389D01*
X122756255Y-51146392D01*
X122756255Y-51146393D01*
X122672615Y-51302874D01*
X122560043Y-51440043D01*
X122422874Y-51552615D01*
X122266393Y-51636255D01*
X122266389Y-51636257D01*
X122096588Y-51687766D01*
X122008362Y-51696455D01*
X121964250Y-51700800D01*
X121875750Y-51700800D01*
X121831638Y-51696455D01*
X121743412Y-51687766D01*
X121573611Y-51636257D01*
X121573607Y-51636255D01*
X121417126Y-51552615D01*
X121279957Y-51440043D01*
X121167385Y-51302874D01*
X121083745Y-51146393D01*
X121083745Y-51146392D01*
X121083743Y-51146389D01*
X121032234Y-50976588D01*
X121014842Y-50800000D01*
X121032234Y-50623412D01*
X121083743Y-50453611D01*
X121083745Y-50453607D01*
X121167385Y-50297126D01*
X121279957Y-50159957D01*
X121417126Y-50047385D01*
X121573607Y-49963745D01*
X121573608Y-49963745D01*
X121573611Y-49963743D01*
X121743412Y-49912234D01*
X121831638Y-49903545D01*
X121875750Y-49899200D01*
X121964250Y-49899200D01*
X122008362Y-49903545D01*
X122008362Y-49903545D01*
G37*
G36*
X149948362Y-49903545D02*
X150036588Y-49912234D01*
X150206389Y-49963743D01*
X150206392Y-49963745D01*
X150206393Y-49963745D01*
X150362874Y-50047385D01*
X150500043Y-50159957D01*
X150612615Y-50297126D01*
X150696255Y-50453607D01*
X150696257Y-50453611D01*
X150747766Y-50623412D01*
X150765158Y-50800000D01*
X150747766Y-50976588D01*
X150696257Y-51146389D01*
X150696255Y-51146392D01*
X150696255Y-51146393D01*
X150612615Y-51302874D01*
X150500043Y-51440043D01*
X150362874Y-51552615D01*
X150206393Y-51636255D01*
X150206389Y-51636257D01*
X150036588Y-51687766D01*
X149948362Y-51696455D01*
X149904250Y-51700800D01*
X149815750Y-51700800D01*
X149771638Y-51696455D01*
X149683412Y-51687766D01*
X149513611Y-51636257D01*
X149513607Y-51636255D01*
X149357126Y-51552615D01*
X149219957Y-51440043D01*
X149107385Y-51302874D01*
X149023745Y-51146393D01*
X149023745Y-51146392D01*
X149023743Y-51146389D01*
X148972234Y-50976588D01*
X148954842Y-50800000D01*
X148972234Y-50623412D01*
X149023743Y-50453611D01*
X149023745Y-50453607D01*
X149107385Y-50297126D01*
X149219957Y-50159957D01*
X149357126Y-50047385D01*
X149513607Y-49963745D01*
X149513608Y-49963745D01*
X149513611Y-49963743D01*
X149683412Y-49912234D01*
X149771638Y-49903545D01*
X149815750Y-49899200D01*
X149904250Y-49899200D01*
X149948362Y-49903545D01*
X149948362Y-49903545D01*
G37*
G36*
X137248362Y-49903545D02*
X137336588Y-49912234D01*
X137506389Y-49963743D01*
X137506392Y-49963745D01*
X137506393Y-49963745D01*
X137662874Y-50047385D01*
X137800043Y-50159957D01*
X137912615Y-50297126D01*
X137996255Y-50453607D01*
X137996257Y-50453611D01*
X138047766Y-50623412D01*
X138065158Y-50800000D01*
X138047766Y-50976588D01*
X137996257Y-51146389D01*
X137996255Y-51146392D01*
X137996255Y-51146393D01*
X137912615Y-51302874D01*
X137800043Y-51440043D01*
X137662874Y-51552615D01*
X137506393Y-51636255D01*
X137506389Y-51636257D01*
X137336588Y-51687766D01*
X137248362Y-51696455D01*
X137204250Y-51700800D01*
X137115750Y-51700800D01*
X137071638Y-51696455D01*
X136983412Y-51687766D01*
X136813611Y-51636257D01*
X136813607Y-51636255D01*
X136657126Y-51552615D01*
X136519957Y-51440043D01*
X136407385Y-51302874D01*
X136323745Y-51146393D01*
X136323745Y-51146392D01*
X136323743Y-51146389D01*
X136272234Y-50976588D01*
X136254842Y-50800000D01*
X136272234Y-50623412D01*
X136323743Y-50453611D01*
X136323745Y-50453607D01*
X136407385Y-50297126D01*
X136519957Y-50159957D01*
X136657126Y-50047385D01*
X136813607Y-49963745D01*
X136813608Y-49963745D01*
X136813611Y-49963743D01*
X136983412Y-49912234D01*
X137071638Y-49903545D01*
X137115750Y-49899200D01*
X137204250Y-49899200D01*
X137248362Y-49903545D01*
X137248362Y-49903545D01*
G37*
G36*
X116928362Y-47363545D02*
X117016588Y-47372234D01*
X117186389Y-47423743D01*
X117186392Y-47423745D01*
X117186393Y-47423745D01*
X117342874Y-47507385D01*
X117342879Y-47507389D01*
X117480043Y-47619957D01*
X117549364Y-47704424D01*
X117592615Y-47757126D01*
X117672438Y-47906466D01*
X117676257Y-47913611D01*
X117727766Y-48083412D01*
X117745158Y-48260000D01*
X117727766Y-48436588D01*
X117676257Y-48606389D01*
X117676255Y-48606392D01*
X117676255Y-48606393D01*
X117592615Y-48762874D01*
X117480043Y-48900043D01*
X117342874Y-49012615D01*
X117186393Y-49096255D01*
X117186389Y-49096257D01*
X117016588Y-49147766D01*
X116928362Y-49156455D01*
X116884250Y-49160800D01*
X116795750Y-49160800D01*
X116751638Y-49156455D01*
X116663412Y-49147766D01*
X116493611Y-49096257D01*
X116493607Y-49096255D01*
X116337126Y-49012615D01*
X116199957Y-48900043D01*
X116087385Y-48762874D01*
X116003745Y-48606393D01*
X116003745Y-48606392D01*
X116003743Y-48606389D01*
X115952234Y-48436588D01*
X115934842Y-48260000D01*
X115952234Y-48083412D01*
X116003743Y-47913611D01*
X116007562Y-47906466D01*
X116087385Y-47757126D01*
X116130637Y-47704424D01*
X116199957Y-47619957D01*
X116337121Y-47507389D01*
X116337126Y-47507385D01*
X116493607Y-47423745D01*
X116493608Y-47423745D01*
X116493611Y-47423743D01*
X116663412Y-47372234D01*
X116751638Y-47363545D01*
X116795750Y-47359200D01*
X116884250Y-47359200D01*
X116928362Y-47363545D01*
X116928362Y-47363545D01*
G37*
G36*
X134708362Y-47363545D02*
X134796588Y-47372234D01*
X134966389Y-47423743D01*
X134966392Y-47423745D01*
X134966393Y-47423745D01*
X135122874Y-47507385D01*
X135122879Y-47507389D01*
X135260043Y-47619957D01*
X135329364Y-47704424D01*
X135372615Y-47757126D01*
X135452438Y-47906466D01*
X135456257Y-47913611D01*
X135507766Y-48083412D01*
X135525158Y-48260000D01*
X135507766Y-48436588D01*
X135456257Y-48606389D01*
X135456255Y-48606392D01*
X135456255Y-48606393D01*
X135372615Y-48762874D01*
X135260043Y-48900043D01*
X135122874Y-49012615D01*
X134966393Y-49096255D01*
X134966389Y-49096257D01*
X134796588Y-49147766D01*
X134708362Y-49156455D01*
X134664250Y-49160800D01*
X134575750Y-49160800D01*
X134531638Y-49156455D01*
X134443412Y-49147766D01*
X134273611Y-49096257D01*
X134273607Y-49096255D01*
X134117126Y-49012615D01*
X133979957Y-48900043D01*
X133867385Y-48762874D01*
X133783745Y-48606393D01*
X133783745Y-48606392D01*
X133783743Y-48606389D01*
X133732234Y-48436588D01*
X133714842Y-48260000D01*
X133732234Y-48083412D01*
X133783743Y-47913611D01*
X133787562Y-47906466D01*
X133867385Y-47757126D01*
X133910637Y-47704424D01*
X133979957Y-47619957D01*
X134117121Y-47507389D01*
X134117126Y-47507385D01*
X134273607Y-47423745D01*
X134273608Y-47423745D01*
X134273611Y-47423743D01*
X134443412Y-47372234D01*
X134531638Y-47363545D01*
X134575750Y-47359200D01*
X134664250Y-47359200D01*
X134708362Y-47363545D01*
X134708362Y-47363545D01*
G37*
G36*
X139788362Y-47363545D02*
X139876588Y-47372234D01*
X140046389Y-47423743D01*
X140046392Y-47423745D01*
X140046393Y-47423745D01*
X140202874Y-47507385D01*
X140202879Y-47507389D01*
X140340043Y-47619957D01*
X140409364Y-47704424D01*
X140452615Y-47757126D01*
X140532438Y-47906466D01*
X140536257Y-47913611D01*
X140587766Y-48083412D01*
X140605158Y-48260000D01*
X140587766Y-48436588D01*
X140536257Y-48606389D01*
X140536255Y-48606392D01*
X140536255Y-48606393D01*
X140452615Y-48762874D01*
X140340043Y-48900043D01*
X140202874Y-49012615D01*
X140046393Y-49096255D01*
X140046389Y-49096257D01*
X139876588Y-49147766D01*
X139788362Y-49156455D01*
X139744250Y-49160800D01*
X139655750Y-49160800D01*
X139611638Y-49156455D01*
X139523412Y-49147766D01*
X139353611Y-49096257D01*
X139353607Y-49096255D01*
X139197126Y-49012615D01*
X139059957Y-48900043D01*
X138947385Y-48762874D01*
X138863745Y-48606393D01*
X138863745Y-48606392D01*
X138863743Y-48606389D01*
X138812234Y-48436588D01*
X138794842Y-48260000D01*
X138812234Y-48083412D01*
X138863743Y-47913611D01*
X138867562Y-47906466D01*
X138947385Y-47757126D01*
X138990637Y-47704424D01*
X139059957Y-47619957D01*
X139197121Y-47507389D01*
X139197126Y-47507385D01*
X139353607Y-47423745D01*
X139353608Y-47423745D01*
X139353611Y-47423743D01*
X139523412Y-47372234D01*
X139611638Y-47363545D01*
X139655750Y-47359200D01*
X139744250Y-47359200D01*
X139788362Y-47363545D01*
X139788362Y-47363545D01*
G37*
G36*
X142328362Y-47363545D02*
X142416588Y-47372234D01*
X142586389Y-47423743D01*
X142586392Y-47423745D01*
X142586393Y-47423745D01*
X142742874Y-47507385D01*
X142742879Y-47507389D01*
X142880043Y-47619957D01*
X142949364Y-47704424D01*
X142992615Y-47757126D01*
X143072438Y-47906466D01*
X143076257Y-47913611D01*
X143127766Y-48083412D01*
X143145158Y-48260000D01*
X143127766Y-48436588D01*
X143076257Y-48606389D01*
X143076255Y-48606392D01*
X143076255Y-48606393D01*
X142992615Y-48762874D01*
X142880043Y-48900043D01*
X142742874Y-49012615D01*
X142586393Y-49096255D01*
X142586389Y-49096257D01*
X142416588Y-49147766D01*
X142328362Y-49156455D01*
X142284250Y-49160800D01*
X142195750Y-49160800D01*
X142151638Y-49156455D01*
X142063412Y-49147766D01*
X141893611Y-49096257D01*
X141893607Y-49096255D01*
X141737126Y-49012615D01*
X141599957Y-48900043D01*
X141487385Y-48762874D01*
X141403745Y-48606393D01*
X141403745Y-48606392D01*
X141403743Y-48606389D01*
X141352234Y-48436588D01*
X141334842Y-48260000D01*
X141352234Y-48083412D01*
X141403743Y-47913611D01*
X141407562Y-47906466D01*
X141487385Y-47757126D01*
X141530637Y-47704424D01*
X141599957Y-47619957D01*
X141737121Y-47507389D01*
X141737126Y-47507385D01*
X141893607Y-47423745D01*
X141893608Y-47423745D01*
X141893611Y-47423743D01*
X142063412Y-47372234D01*
X142151638Y-47363545D01*
X142195750Y-47359200D01*
X142284250Y-47359200D01*
X142328362Y-47363545D01*
X142328362Y-47363545D01*
G37*
G36*
X132168362Y-47363545D02*
X132256588Y-47372234D01*
X132426389Y-47423743D01*
X132426392Y-47423745D01*
X132426393Y-47423745D01*
X132582874Y-47507385D01*
X132582879Y-47507389D01*
X132720043Y-47619957D01*
X132789364Y-47704424D01*
X132832615Y-47757126D01*
X132912438Y-47906466D01*
X132916257Y-47913611D01*
X132967766Y-48083412D01*
X132985158Y-48260000D01*
X132967766Y-48436588D01*
X132916257Y-48606389D01*
X132916255Y-48606392D01*
X132916255Y-48606393D01*
X132832615Y-48762874D01*
X132720043Y-48900043D01*
X132582874Y-49012615D01*
X132426393Y-49096255D01*
X132426389Y-49096257D01*
X132256588Y-49147766D01*
X132168362Y-49156455D01*
X132124250Y-49160800D01*
X132035750Y-49160800D01*
X131991638Y-49156455D01*
X131903412Y-49147766D01*
X131733611Y-49096257D01*
X131733607Y-49096255D01*
X131577126Y-49012615D01*
X131439957Y-48900043D01*
X131327385Y-48762874D01*
X131243745Y-48606393D01*
X131243745Y-48606392D01*
X131243743Y-48606389D01*
X131192234Y-48436588D01*
X131174842Y-48260000D01*
X131192234Y-48083412D01*
X131243743Y-47913611D01*
X131247562Y-47906466D01*
X131327385Y-47757126D01*
X131370637Y-47704424D01*
X131439957Y-47619957D01*
X131577121Y-47507389D01*
X131577126Y-47507385D01*
X131733607Y-47423745D01*
X131733608Y-47423745D01*
X131733611Y-47423743D01*
X131903412Y-47372234D01*
X131991638Y-47363545D01*
X132035750Y-47359200D01*
X132124250Y-47359200D01*
X132168362Y-47363545D01*
X132168362Y-47363545D01*
G37*
G36*
X137248362Y-47363545D02*
X137336588Y-47372234D01*
X137506389Y-47423743D01*
X137506392Y-47423745D01*
X137506393Y-47423745D01*
X137662874Y-47507385D01*
X137662879Y-47507389D01*
X137800043Y-47619957D01*
X137869364Y-47704424D01*
X137912615Y-47757126D01*
X137992438Y-47906466D01*
X137996257Y-47913611D01*
X138047766Y-48083412D01*
X138065158Y-48260000D01*
X138047766Y-48436588D01*
X137996257Y-48606389D01*
X137996255Y-48606392D01*
X137996255Y-48606393D01*
X137912615Y-48762874D01*
X137800043Y-48900043D01*
X137662874Y-49012615D01*
X137506393Y-49096255D01*
X137506389Y-49096257D01*
X137336588Y-49147766D01*
X137248362Y-49156455D01*
X137204250Y-49160800D01*
X137115750Y-49160800D01*
X137071638Y-49156455D01*
X136983412Y-49147766D01*
X136813611Y-49096257D01*
X136813607Y-49096255D01*
X136657126Y-49012615D01*
X136519957Y-48900043D01*
X136407385Y-48762874D01*
X136323745Y-48606393D01*
X136323745Y-48606392D01*
X136323743Y-48606389D01*
X136272234Y-48436588D01*
X136254842Y-48260000D01*
X136272234Y-48083412D01*
X136323743Y-47913611D01*
X136327562Y-47906466D01*
X136407385Y-47757126D01*
X136450637Y-47704424D01*
X136519957Y-47619957D01*
X136657121Y-47507389D01*
X136657126Y-47507385D01*
X136813607Y-47423745D01*
X136813608Y-47423745D01*
X136813611Y-47423743D01*
X136983412Y-47372234D01*
X137071638Y-47363545D01*
X137115750Y-47359200D01*
X137204250Y-47359200D01*
X137248362Y-47363545D01*
X137248362Y-47363545D01*
G37*
G36*
X149948362Y-47363545D02*
X150036588Y-47372234D01*
X150206389Y-47423743D01*
X150206392Y-47423745D01*
X150206393Y-47423745D01*
X150362874Y-47507385D01*
X150362879Y-47507389D01*
X150500043Y-47619957D01*
X150569364Y-47704424D01*
X150612615Y-47757126D01*
X150692438Y-47906466D01*
X150696257Y-47913611D01*
X150747766Y-48083412D01*
X150765158Y-48260000D01*
X150747766Y-48436588D01*
X150696257Y-48606389D01*
X150696255Y-48606392D01*
X150696255Y-48606393D01*
X150612615Y-48762874D01*
X150500043Y-48900043D01*
X150362874Y-49012615D01*
X150206393Y-49096255D01*
X150206389Y-49096257D01*
X150036588Y-49147766D01*
X149948362Y-49156455D01*
X149904250Y-49160800D01*
X149815750Y-49160800D01*
X149771638Y-49156455D01*
X149683412Y-49147766D01*
X149513611Y-49096257D01*
X149513607Y-49096255D01*
X149357126Y-49012615D01*
X149219957Y-48900043D01*
X149107385Y-48762874D01*
X149023745Y-48606393D01*
X149023745Y-48606392D01*
X149023743Y-48606389D01*
X148972234Y-48436588D01*
X148954842Y-48260000D01*
X148972234Y-48083412D01*
X149023743Y-47913611D01*
X149027562Y-47906466D01*
X149107385Y-47757126D01*
X149150637Y-47704424D01*
X149219957Y-47619957D01*
X149357121Y-47507389D01*
X149357126Y-47507385D01*
X149513607Y-47423745D01*
X149513608Y-47423745D01*
X149513611Y-47423743D01*
X149683412Y-47372234D01*
X149771638Y-47363545D01*
X149815750Y-47359200D01*
X149904250Y-47359200D01*
X149948362Y-47363545D01*
X149948362Y-47363545D01*
G37*
G36*
X148220800Y-49160800D02*
X146419200Y-49160800D01*
X146419200Y-47359200D01*
X148220800Y-47359200D01*
X148220800Y-49160800D01*
X148220800Y-49160800D01*
G37*
G36*
X109308362Y-47363545D02*
X109396588Y-47372234D01*
X109566389Y-47423743D01*
X109566392Y-47423745D01*
X109566393Y-47423745D01*
X109722874Y-47507385D01*
X109722879Y-47507389D01*
X109860043Y-47619957D01*
X109929364Y-47704424D01*
X109972615Y-47757126D01*
X110052438Y-47906466D01*
X110056257Y-47913611D01*
X110107766Y-48083412D01*
X110125158Y-48260000D01*
X110107766Y-48436588D01*
X110056257Y-48606389D01*
X110056255Y-48606392D01*
X110056255Y-48606393D01*
X109972615Y-48762874D01*
X109860043Y-48900043D01*
X109722874Y-49012615D01*
X109566393Y-49096255D01*
X109566389Y-49096257D01*
X109396588Y-49147766D01*
X109308362Y-49156455D01*
X109264250Y-49160800D01*
X109175750Y-49160800D01*
X109131638Y-49156455D01*
X109043412Y-49147766D01*
X108873611Y-49096257D01*
X108873607Y-49096255D01*
X108717126Y-49012615D01*
X108579957Y-48900043D01*
X108467385Y-48762874D01*
X108383745Y-48606393D01*
X108383745Y-48606392D01*
X108383743Y-48606389D01*
X108332234Y-48436588D01*
X108314842Y-48260000D01*
X108332234Y-48083412D01*
X108383743Y-47913611D01*
X108387562Y-47906466D01*
X108467385Y-47757126D01*
X108510637Y-47704424D01*
X108579957Y-47619957D01*
X108717121Y-47507389D01*
X108717126Y-47507385D01*
X108873607Y-47423745D01*
X108873608Y-47423745D01*
X108873611Y-47423743D01*
X109043412Y-47372234D01*
X109131638Y-47363545D01*
X109175750Y-47359200D01*
X109264250Y-47359200D01*
X109308362Y-47363545D01*
X109308362Y-47363545D01*
G37*
G36*
X111848362Y-47363545D02*
X111936588Y-47372234D01*
X112106389Y-47423743D01*
X112106392Y-47423745D01*
X112106393Y-47423745D01*
X112262874Y-47507385D01*
X112262879Y-47507389D01*
X112400043Y-47619957D01*
X112469364Y-47704424D01*
X112512615Y-47757126D01*
X112592438Y-47906466D01*
X112596257Y-47913611D01*
X112647766Y-48083412D01*
X112665158Y-48260000D01*
X112647766Y-48436588D01*
X112596257Y-48606389D01*
X112596255Y-48606392D01*
X112596255Y-48606393D01*
X112512615Y-48762874D01*
X112400043Y-48900043D01*
X112262874Y-49012615D01*
X112106393Y-49096255D01*
X112106389Y-49096257D01*
X111936588Y-49147766D01*
X111848362Y-49156455D01*
X111804250Y-49160800D01*
X111715750Y-49160800D01*
X111671638Y-49156455D01*
X111583412Y-49147766D01*
X111413611Y-49096257D01*
X111413607Y-49096255D01*
X111257126Y-49012615D01*
X111119957Y-48900043D01*
X111007385Y-48762874D01*
X110923745Y-48606393D01*
X110923745Y-48606392D01*
X110923743Y-48606389D01*
X110872234Y-48436588D01*
X110854842Y-48260000D01*
X110872234Y-48083412D01*
X110923743Y-47913611D01*
X110927562Y-47906466D01*
X111007385Y-47757126D01*
X111050637Y-47704424D01*
X111119957Y-47619957D01*
X111257121Y-47507389D01*
X111257126Y-47507385D01*
X111413607Y-47423745D01*
X111413608Y-47423745D01*
X111413611Y-47423743D01*
X111583412Y-47372234D01*
X111671638Y-47363545D01*
X111715750Y-47359200D01*
X111804250Y-47359200D01*
X111848362Y-47363545D01*
X111848362Y-47363545D01*
G37*
G36*
X114388362Y-47363545D02*
X114476588Y-47372234D01*
X114646389Y-47423743D01*
X114646392Y-47423745D01*
X114646393Y-47423745D01*
X114802874Y-47507385D01*
X114802879Y-47507389D01*
X114940043Y-47619957D01*
X115009364Y-47704424D01*
X115052615Y-47757126D01*
X115132438Y-47906466D01*
X115136257Y-47913611D01*
X115187766Y-48083412D01*
X115205158Y-48260000D01*
X115187766Y-48436588D01*
X115136257Y-48606389D01*
X115136255Y-48606392D01*
X115136255Y-48606393D01*
X115052615Y-48762874D01*
X114940043Y-48900043D01*
X114802874Y-49012615D01*
X114646393Y-49096255D01*
X114646389Y-49096257D01*
X114476588Y-49147766D01*
X114388362Y-49156455D01*
X114344250Y-49160800D01*
X114255750Y-49160800D01*
X114211638Y-49156455D01*
X114123412Y-49147766D01*
X113953611Y-49096257D01*
X113953607Y-49096255D01*
X113797126Y-49012615D01*
X113659957Y-48900043D01*
X113547385Y-48762874D01*
X113463745Y-48606393D01*
X113463745Y-48606392D01*
X113463743Y-48606389D01*
X113412234Y-48436588D01*
X113394842Y-48260000D01*
X113412234Y-48083412D01*
X113463743Y-47913611D01*
X113467562Y-47906466D01*
X113547385Y-47757126D01*
X113590637Y-47704424D01*
X113659957Y-47619957D01*
X113797121Y-47507389D01*
X113797126Y-47507385D01*
X113953607Y-47423745D01*
X113953608Y-47423745D01*
X113953611Y-47423743D01*
X114123412Y-47372234D01*
X114211638Y-47363545D01*
X114255750Y-47359200D01*
X114344250Y-47359200D01*
X114388362Y-47363545D01*
X114388362Y-47363545D01*
G37*
G36*
X119468362Y-47363545D02*
X119556588Y-47372234D01*
X119726389Y-47423743D01*
X119726392Y-47423745D01*
X119726393Y-47423745D01*
X119882874Y-47507385D01*
X119882879Y-47507389D01*
X120020043Y-47619957D01*
X120089364Y-47704424D01*
X120132615Y-47757126D01*
X120212438Y-47906466D01*
X120216257Y-47913611D01*
X120267766Y-48083412D01*
X120285158Y-48260000D01*
X120267766Y-48436588D01*
X120216257Y-48606389D01*
X120216255Y-48606392D01*
X120216255Y-48606393D01*
X120132615Y-48762874D01*
X120020043Y-48900043D01*
X119882874Y-49012615D01*
X119726393Y-49096255D01*
X119726389Y-49096257D01*
X119556588Y-49147766D01*
X119468362Y-49156455D01*
X119424250Y-49160800D01*
X119335750Y-49160800D01*
X119291638Y-49156455D01*
X119203412Y-49147766D01*
X119033611Y-49096257D01*
X119033607Y-49096255D01*
X118877126Y-49012615D01*
X118739957Y-48900043D01*
X118627385Y-48762874D01*
X118543745Y-48606393D01*
X118543745Y-48606392D01*
X118543743Y-48606389D01*
X118492234Y-48436588D01*
X118474842Y-48260000D01*
X118492234Y-48083412D01*
X118543743Y-47913611D01*
X118547562Y-47906466D01*
X118627385Y-47757126D01*
X118670637Y-47704424D01*
X118739957Y-47619957D01*
X118877121Y-47507389D01*
X118877126Y-47507385D01*
X119033607Y-47423745D01*
X119033608Y-47423745D01*
X119033611Y-47423743D01*
X119203412Y-47372234D01*
X119291638Y-47363545D01*
X119335750Y-47359200D01*
X119424250Y-47359200D01*
X119468362Y-47363545D01*
X119468362Y-47363545D01*
G37*
G36*
X122008362Y-47363545D02*
X122096588Y-47372234D01*
X122266389Y-47423743D01*
X122266392Y-47423745D01*
X122266393Y-47423745D01*
X122422874Y-47507385D01*
X122422879Y-47507389D01*
X122560043Y-47619957D01*
X122629364Y-47704424D01*
X122672615Y-47757126D01*
X122752438Y-47906466D01*
X122756257Y-47913611D01*
X122807766Y-48083412D01*
X122825158Y-48260000D01*
X122807766Y-48436588D01*
X122756257Y-48606389D01*
X122756255Y-48606392D01*
X122756255Y-48606393D01*
X122672615Y-48762874D01*
X122560043Y-48900043D01*
X122422874Y-49012615D01*
X122266393Y-49096255D01*
X122266389Y-49096257D01*
X122096588Y-49147766D01*
X122008362Y-49156455D01*
X121964250Y-49160800D01*
X121875750Y-49160800D01*
X121831638Y-49156455D01*
X121743412Y-49147766D01*
X121573611Y-49096257D01*
X121573607Y-49096255D01*
X121417126Y-49012615D01*
X121279957Y-48900043D01*
X121167385Y-48762874D01*
X121083745Y-48606393D01*
X121083745Y-48606392D01*
X121083743Y-48606389D01*
X121032234Y-48436588D01*
X121014842Y-48260000D01*
X121032234Y-48083412D01*
X121083743Y-47913611D01*
X121087562Y-47906466D01*
X121167385Y-47757126D01*
X121210637Y-47704424D01*
X121279957Y-47619957D01*
X121417121Y-47507389D01*
X121417126Y-47507385D01*
X121573607Y-47423745D01*
X121573608Y-47423745D01*
X121573611Y-47423743D01*
X121743412Y-47372234D01*
X121831638Y-47363545D01*
X121875750Y-47359200D01*
X121964250Y-47359200D01*
X122008362Y-47363545D01*
X122008362Y-47363545D01*
G37*
G36*
X129628362Y-47363545D02*
X129716588Y-47372234D01*
X129886389Y-47423743D01*
X129886392Y-47423745D01*
X129886393Y-47423745D01*
X130042874Y-47507385D01*
X130042879Y-47507389D01*
X130180043Y-47619957D01*
X130249364Y-47704424D01*
X130292615Y-47757126D01*
X130372438Y-47906466D01*
X130376257Y-47913611D01*
X130427766Y-48083412D01*
X130445158Y-48260000D01*
X130427766Y-48436588D01*
X130376257Y-48606389D01*
X130376255Y-48606392D01*
X130376255Y-48606393D01*
X130292615Y-48762874D01*
X130180043Y-48900043D01*
X130042874Y-49012615D01*
X129886393Y-49096255D01*
X129886389Y-49096257D01*
X129716588Y-49147766D01*
X129628362Y-49156455D01*
X129584250Y-49160800D01*
X129495750Y-49160800D01*
X129451638Y-49156455D01*
X129363412Y-49147766D01*
X129193611Y-49096257D01*
X129193607Y-49096255D01*
X129037126Y-49012615D01*
X128899957Y-48900043D01*
X128787385Y-48762874D01*
X128703745Y-48606393D01*
X128703745Y-48606392D01*
X128703743Y-48606389D01*
X128652234Y-48436588D01*
X128634842Y-48260000D01*
X128652234Y-48083412D01*
X128703743Y-47913611D01*
X128707562Y-47906466D01*
X128787385Y-47757126D01*
X128830637Y-47704424D01*
X128899957Y-47619957D01*
X129037121Y-47507389D01*
X129037126Y-47507385D01*
X129193607Y-47423745D01*
X129193608Y-47423745D01*
X129193611Y-47423743D01*
X129363412Y-47372234D01*
X129451638Y-47363545D01*
X129495750Y-47359200D01*
X129584250Y-47359200D01*
X129628362Y-47363545D01*
X129628362Y-47363545D01*
G37*
G36*
X124548362Y-47363545D02*
X124636588Y-47372234D01*
X124806389Y-47423743D01*
X124806392Y-47423745D01*
X124806393Y-47423745D01*
X124962874Y-47507385D01*
X124962879Y-47507389D01*
X125100043Y-47619957D01*
X125169364Y-47704424D01*
X125212615Y-47757126D01*
X125292438Y-47906466D01*
X125296257Y-47913611D01*
X125347766Y-48083412D01*
X125365158Y-48260000D01*
X125347766Y-48436588D01*
X125296257Y-48606389D01*
X125296255Y-48606392D01*
X125296255Y-48606393D01*
X125212615Y-48762874D01*
X125100043Y-48900043D01*
X124962874Y-49012615D01*
X124806393Y-49096255D01*
X124806389Y-49096257D01*
X124636588Y-49147766D01*
X124548362Y-49156455D01*
X124504250Y-49160800D01*
X124415750Y-49160800D01*
X124371638Y-49156455D01*
X124283412Y-49147766D01*
X124113611Y-49096257D01*
X124113607Y-49096255D01*
X123957126Y-49012615D01*
X123819957Y-48900043D01*
X123707385Y-48762874D01*
X123623745Y-48606393D01*
X123623745Y-48606392D01*
X123623743Y-48606389D01*
X123572234Y-48436588D01*
X123554842Y-48260000D01*
X123572234Y-48083412D01*
X123623743Y-47913611D01*
X123627562Y-47906466D01*
X123707385Y-47757126D01*
X123750637Y-47704424D01*
X123819957Y-47619957D01*
X123957121Y-47507389D01*
X123957126Y-47507385D01*
X124113607Y-47423745D01*
X124113608Y-47423745D01*
X124113611Y-47423743D01*
X124283412Y-47372234D01*
X124371638Y-47363545D01*
X124415750Y-47359200D01*
X124504250Y-47359200D01*
X124548362Y-47363545D01*
X124548362Y-47363545D01*
G37*
G36*
X127088362Y-47363545D02*
X127176588Y-47372234D01*
X127346389Y-47423743D01*
X127346392Y-47423745D01*
X127346393Y-47423745D01*
X127502874Y-47507385D01*
X127502879Y-47507389D01*
X127640043Y-47619957D01*
X127709364Y-47704424D01*
X127752615Y-47757126D01*
X127832438Y-47906466D01*
X127836257Y-47913611D01*
X127887766Y-48083412D01*
X127905158Y-48260000D01*
X127887766Y-48436588D01*
X127836257Y-48606389D01*
X127836255Y-48606392D01*
X127836255Y-48606393D01*
X127752615Y-48762874D01*
X127640043Y-48900043D01*
X127502874Y-49012615D01*
X127346393Y-49096255D01*
X127346389Y-49096257D01*
X127176588Y-49147766D01*
X127088362Y-49156455D01*
X127044250Y-49160800D01*
X126955750Y-49160800D01*
X126911638Y-49156455D01*
X126823412Y-49147766D01*
X126653611Y-49096257D01*
X126653607Y-49096255D01*
X126497126Y-49012615D01*
X126359957Y-48900043D01*
X126247385Y-48762874D01*
X126163745Y-48606393D01*
X126163745Y-48606392D01*
X126163743Y-48606389D01*
X126112234Y-48436588D01*
X126094842Y-48260000D01*
X126112234Y-48083412D01*
X126163743Y-47913611D01*
X126167562Y-47906466D01*
X126247385Y-47757126D01*
X126290637Y-47704424D01*
X126359957Y-47619957D01*
X126497121Y-47507389D01*
X126497126Y-47507385D01*
X126653607Y-47423745D01*
X126653608Y-47423745D01*
X126653611Y-47423743D01*
X126823412Y-47372234D01*
X126911638Y-47363545D01*
X126955750Y-47359200D01*
X127044250Y-47359200D01*
X127088362Y-47363545D01*
X127088362Y-47363545D01*
G37*
G36*
X103818223Y-42594127D02*
X104409833Y-42839180D01*
X104942261Y-43194936D01*
X105395064Y-43647739D01*
X105750820Y-44180167D01*
X105750821Y-44180169D01*
X105995873Y-44771777D01*
X106120800Y-45399824D01*
X106120800Y-46040176D01*
X106098263Y-46153476D01*
X105995873Y-46668223D01*
X105750820Y-47259833D01*
X105395064Y-47792261D01*
X104942261Y-48245064D01*
X104409833Y-48600820D01*
X104409832Y-48600821D01*
X104409831Y-48600821D01*
X103818223Y-48845873D01*
X103190176Y-48970800D01*
X102549824Y-48970800D01*
X101921777Y-48845873D01*
X101330169Y-48600821D01*
X101330168Y-48600821D01*
X101330167Y-48600820D01*
X100797739Y-48245064D01*
X100344936Y-47792261D01*
X99989180Y-47259833D01*
X99744127Y-46668223D01*
X99641737Y-46153476D01*
X99619200Y-46040176D01*
X99619200Y-45399824D01*
X99744127Y-44771777D01*
X99989179Y-44180169D01*
X99989180Y-44180167D01*
X100344936Y-43647739D01*
X100797739Y-43194936D01*
X101330167Y-42839180D01*
X101921777Y-42594127D01*
X102549824Y-42469200D01*
X103190176Y-42469200D01*
X103818223Y-42594127D01*
X103818223Y-42594127D01*
G37*
G36*
X159698223Y-42594127D02*
X160289833Y-42839180D01*
X160822261Y-43194936D01*
X161275064Y-43647739D01*
X161630820Y-44180167D01*
X161630821Y-44180169D01*
X161875873Y-44771777D01*
X162000800Y-45399824D01*
X162000800Y-46040176D01*
X161978263Y-46153476D01*
X161875873Y-46668223D01*
X161630820Y-47259833D01*
X161275064Y-47792261D01*
X160822261Y-48245064D01*
X160289833Y-48600820D01*
X160289832Y-48600821D01*
X160289831Y-48600821D01*
X159698223Y-48845873D01*
X159070176Y-48970800D01*
X158429824Y-48970800D01*
X157801777Y-48845873D01*
X157210169Y-48600821D01*
X157210168Y-48600821D01*
X157210167Y-48600820D01*
X156677739Y-48245064D01*
X156224936Y-47792261D01*
X155869180Y-47259833D01*
X155624127Y-46668223D01*
X155521737Y-46153476D01*
X155499200Y-46040176D01*
X155499200Y-45399824D01*
X155624127Y-44771777D01*
X155869179Y-44180169D01*
X155869180Y-44180167D01*
X156224936Y-43647739D01*
X156677739Y-43194936D01*
X157210167Y-42839180D01*
X157801777Y-42594127D01*
X158429824Y-42469200D01*
X159070176Y-42469200D01*
X159698223Y-42594127D01*
X159698223Y-42594127D01*
G37*
M02*
